<?xml version="1.0" encoding="UTF-8"?>
<svg id="Layer_1" data-name="Layer 1" xmlns="http://www.w3.org/2000/svg" viewBox="0 0 248.27 305.18">
  <defs>
    <style>
      .cls-1 {
        fill: #287d82;
        stroke-width: 0px;
      }
    </style>
  </defs>
  <path class="cls-1" d="m214.78,129.89c.83-.72,1.69-.57,2.69-.28,3.06.88,6.22,1.37,9.38,1.68,2.53.25,3.45,1.47,3.42,4.04-.1,11.08-.02,22.16-.02,33.24,0,20.27-.02,40.54-.04,60.82,0,3.35-.25,3.61-3.55,3.97-27.57,3.02-55.14,6.05-82.72,9.02-1.47.16-2.28.58-2.82,2.08-1.11,3.1-3.28,5.46-6.03,7.26-8.36,5.47-21.8,3.88-27.79-3.28-.68-.81-1.56-1.69-1.73-2.65-.56-3.13-2.7-3.44-5.3-3.72-26.76-2.83-53.52-5.76-80.28-8.65-4.02-.43-4.12-.55-4.12-4.69,0-31.19,0-62.37-.07-93.56,0-2.31.78-3.35,3.04-3.9,2.86-.7,5.81-.43,8.65-1.24,1.37-.39,1.59-.98,1.57-2.19-.07-3.61-.02-7.22-.06-10.83-.02-1.8.7-2.79,2.59-2.8,27.43-.08,54.14,3.66,79.37,15.11,3.5,1.59,6.86,3.5,10.19,5.44,1.34.78,2.32.91,3.45-.18.53-.5,1.18-.89,1.81-1.26.84-.51,1.78-1.17,2.61-.1.73.94.54,2.01-.06,2.99-.13.2-.31.43-.52.51-3.74,1.45-3.38,4.6-3.38,7.75.06,30.12.07,60.24.1,90.36,0,3.21.01,3.18,2.81,1.83,19.97-9.59,41.02-15.56,62.88-18.86,6.49-.98,13-1.89,19.57-2.09,2.07-.06,2.32-.89,2.31-2.66-.04-25.77-.02-51.54.02-77.31,0-1.67-.48-3.48.88-4.94.37-.3.74-.6,1.12-.9Zm-93.75,58.62h-.05c0-15.68-.03-31.35.04-47.03,0-1.62-.51-2.53-1.88-3.31-5.36-3.04-10.85-5.8-16.6-8.01-21.65-8.34-44.2-11.51-67.26-11.77-1.78-.02-1.94.68-1.93,2.13.05,11.49.04,22.98.05,34.47,0,19.37.02,38.74-.04,58.11,0,1.75.21,2.6,2.31,2.67,4.01.13,8.02.57,12.01,1.04,24.7,2.9,48.45,9.18,70.88,20.09,2.44,1.19,2.47,1.18,2.47-1.6,0-15.59,0-31.19,0-46.78Zm104.94-6.1c0-13.3,0-26.59,0-39.89,0-2.21.72-4.9-.28-6.51-1.13-1.83-4.24-.95-6.37-1.69-1.99-.69-2.28.14-2.27,1.95.03,26.51-.01,53.02-.03,79.53,0,3.23-.49,3.74-3.57,3.91-30.84,1.73-60.27,8.92-87.93,22.88-1.78.9-3.19,1.05-5.03.1-27.36-14.27-56.7-21.1-87.34-22.9-3.67-.22-4.06-.53-4.06-4.2,0-24.95,0-49.9-.02-74.85,0-2.12.69-5.08-.41-6.14-1.35-1.31-4.11.3-6.27.42-1.68.09-2.32.69-2.31,2.55.07,29.79.08,59.58.02,89.37,0,1.82.54,2.33,2.28,2.5,11.34,1.14,22.68,2.37,34.01,3.61,16.31,1.78,32.61,3.62,48.93,5.38,1.82.2,2.79.9,3.14,2.77.51,2.66,1.91,4.88,4.16,6.47,3.96,2.8,8.43,3.63,13.12,2.91,6.1-.94,10.93-3.57,12.12-10.35.27-1.51,1.5-1.57,2.63-1.7,10.6-1.18,21.2-2.35,31.8-3.51,17.12-1.88,34.24-3.78,51.37-5.58,1.88-.2,2.37-.82,2.36-2.7-.09-14.77-.05-29.54-.05-44.32Z"/>
  <path class="cls-1" d="m170.36,137.51c-3.01.08-6.23-.05-9.38-.6-1.98-.35-3.43.22-4.94,1.39-5.78,4.47-11.83,8.55-17.89,12.63-1.01.68-1.98,1.57-3.34.75-1.26-.76-.95-1.98-.89-3.1.31-5.57.59-11.14,1.01-16.71.13-1.64-.38-2.48-1.85-3.22-5.53-2.79-10.6-6.25-14.83-10.83-13.79-14.93-13.51-34.18.82-48.65,9.19-9.27,20.58-14.49,33.21-17.05,18.91-3.84,37.22-2.11,54.63,6.6,6.9,3.45,12.97,8.02,17.75,14.16,11.12,14.28,10.23,31.63-2.28,44.7-10.49,10.95-23.67,16.47-38.36,18.89-4.46.74-8.96,1.13-13.68,1.04Zm-31.42,7.67c.44-.28,1.2-.72,1.91-1.23,5.1-3.57,10.2-7.14,15.26-10.76.56-.4,1.16-.97,1.72-.67,1.64.88,3.37.33,5.04.47,8.14.72,16.22.33,24.23-1.4,12.89-2.78,24.42-8.05,33.32-18.12,10.04-11.37,10.33-26.41.83-38.23-4.08-5.07-9.07-9.01-14.78-12.04-16.55-8.77-34.11-10.68-52.32-7.21-12.25,2.33-23.35,7.23-32.24,16.25-12.91,13.09-12.76,30.55.23,43.58,4.04,4.05,8.65,7.33,13.87,9.63,2.34,1.03,3.08,2.42,2.99,4.9-.18,4.91-.05,9.82-.05,14.82Z"/>
  <path class="cls-1" d="m139.14,102.64c-3.85-4.52-4.38-9.92-1.63-13.94,2.57-3.76,9.09-5.61,13.82-3.96,2.06.72.98,2.36.95,3.52-.03,1.64-1.27.39-1.82.33-1.56-.17-3.08-.32-4.65-.01-3.89.76-5.86,3.28-5.52,7.13.31,3.59,3.07,6.19,6.7,6.21,4.1.03,8.2-.06,12.3-.03,1.8.01,2.69,0,1.58-2.33-3.63-7.61,1.27-15.52,9.28-15.32,4.47.12,7.77,2.9,8.61,7.32.64,3.38.47,6.69-1.51,10.11,3.3.1,6.35.46,9.38-.07,1.8-.31,2.48-1.74,2.5-3.47.03-2.63.19-5.26.02-7.88-.13-2,.88-2.03,2.37-2.04,1.43,0,2.28.12,2.18,1.93-.14,2.53-.07,5.09.06,7.63.14,2.69,2.2,4.34,5.01,4.23,2.41-.09,3.54-1.38,3.59-4.32.06-3.69.14-7.39-.03-11.08-.09-1.97.97-1.81,2.26-1.84,1.39-.03,2.32.04,2.24,1.9-.15,3.52-.05,7.06-.07,10.59-.01,3.26-.63,6.33-3.79,8-3.4,1.8-6.84,1.45-10.04-.63-.8-.52-1.22-.96-2.16-.07-1.59,1.51-3.72,1.52-5.8,1.52-12.8,0-25.61,0-38.41,0-2.06,0-4.11.12-6.1.63-3.13.81-4.35,2.23-4.13,5.45.15,2.21-.98,2.03-2.47,2.14-1.82.13-2.11-.6-2.15-2.25-.11-5.09,2.16-8.27,7.44-9.4Zm35.62-7.7c0-4.36-2.27-6.8-5.9-6.34-2.89.37-4.48,2.61-4.48,6.32,0,4,2.34,7.08,5.34,7.03,2.92-.05,5.05-3.01,5.05-7.01Z"/>
  <path class="cls-1" d="m175.49,78.18c-.12,1.47-.85,2.54-2.38,2.55-1.48.02-2.49-.9-2.53-2.41-.04-1.5.84-2.47,2.37-2.54,1.57-.06,2.34.89,2.54,2.39Z"/>
  <path class="cls-1" d="m148.93,80.72c-1.47-.19-2.55-.88-2.61-2.45-.07-1.57.91-2.48,2.41-2.54,1.53-.07,2.48.82,2.56,2.38.07,1.58-.86,2.38-2.35,2.61Z"/>
  <path class="cls-1" d="m166.11,80.71c-1.48-.19-2.52-.95-2.49-2.48.03-1.45.89-2.46,2.46-2.44,1.52.02,2.46.89,2.47,2.42.01,1.55-1.02,2.27-2.45,2.5Z"/>
  <path class="cls-1" d="m144.33,78.17c-.09,1.51-.92,2.49-2.4,2.52-1.43.03-2.51-.76-2.58-2.33-.08-1.65.85-2.65,2.47-2.66,1.48,0,2.33.95,2.51,2.46Z"/>
</svg>