<?xml version="1.0" encoding="UTF-8"?>
<svg id="Layer_1" data-name="Layer 1" xmlns="http://www.w3.org/2000/svg" viewBox="0 0 248.27 305.18">
  <defs>
    <style>
      .cls-1 {
        fill: #fcfdfd;
      }

      .cls-1, .cls-2 {
        stroke-width: 0px;
      }

      .cls-2 {
        fill: #2a9b98;
      }
    </style>
  </defs>
  <path class="cls-2" d="m134.52,255.76c-26.44,0-52.89,0-79.33,0-11.24,0-21.45-7.64-24.73-18.38-1.08-3.55-1.23-7.15-1.02-10.78,1.55-26.87,3.11-53.73,4.7-80.59,1.31-22.28,2.68-44.56,3.98-66.85.69-11.81,9.8-20.7,21.65-20.75,19.63-.09,39.26-.07,58.89,0,1.65,0,2.45-.49,2.93-1.99.41-1.28,1.02-2.49,1.56-3.73.94-2.16,2.7-3.17,4.95-3.25,2.33-.08,4.18.89,5.32,3.01.19.36.42.72.49,1.11.75,4.18,3.3,4.96,7.3,4.9,17.94-.23,35.89-.05,53.83-.11,3.27-.01,5.28,1.67,5.67,4.79,3.25,25.83,6.66,51.63,9.99,77.45,2.65,20.53,5.25,41.07,7.87,61.61.09.74.19,1.47.25,2.21.26,3.12.14,3.08-2.76,4.51-3.82,1.88-6.22,5.14-7.64,9.05-2.7,7.38-3.18,14.87-.45,22.38,1.71,4.7,4.29,8.7,9.1,10.82,1.12.5,1.69,1.38,1.47,2.59-.23,1.31-1.17,1.94-2.45,1.99-1.35.05-2.7.01-4.05.01-25.84,0-51.67,0-77.51,0v.03Zm-31.5-144.11c-3.94,2.32-7.86,4.67-11.83,6.93-1.13.64-1.54,1.4-1.53,2.73.06,8.63.17,17.27-.05,25.9-.08,3.04.76,4.72,3.49,6.32,11.23,6.57,22.26,13.47,33.37,20.23.91.55,1.68,1.28,3.04.45,12.06-7.4,24.18-14.72,36.31-22.01,1.08-.65,1.39-1.39,1.38-2.61-.05-9.51-.07-19.02,0-28.53,0-1.22-.43-1.82-1.38-2.39-3.65-2.17-7.26-4.41-10.9-6.6-.47-.28-.89-.81-1.74-.6.55,2.38,1.02,4.75,1.66,7.08.73,2.66.37,5.01-1.89,6.72-2.27,1.72-4.6,1.38-6.96-.08-5.32-3.31-10.71-6.51-16.03-9.82-1.1-.68-1.85-.81-3.04-.06-5.42,3.41-10.91,6.7-16.42,9.97-2.19,1.3-4.51,1.72-6.74.02-2.06-1.57-2.48-3.69-2-6.15.47-2.44,1.29-4.81,1.43-7.31.18-.13.22-.27.05-.43-.07.08-.14.17-.22.25Zm31.8,92.33v.02c21.11,0,42.23,0,63.34,0,4.65,0,9.31-.08,13.96.04,1.78.05,2.15-.51,1.88-2.18-.63-3.86-1.11-7.74-1.61-11.62-2.48-19.39-4.92-38.79-7.44-58.18-2.91-22.4-5.89-44.78-8.78-67.18-.19-1.47-.68-1.86-2.13-1.85-11.53.06-23.07.03-34.6.03-6.41,0-12.82,0-19.22,0-2.28,0-2.26,0-1.31,2.16.76,1.72,1.58,3.44,2.18,5.22.56,1.68,1.45,2.4,3.32,2.52,6.25.42,12.49,1.07,18.74,1.64,2.56.24,4.55,1.37,5.36,3.92.84,2.64.16,4.88-2.03,6.68-4.32,3.56-8.47,7.33-12.92,10.71-2.4,1.83-3.38,3.6-2.39,6.58.51,1.54.99,2.7,2.5,3.56,5.32,3.04,10.52,6.32,15.84,9.37,1.75,1,2.41,2.23,2.4,4.23-.06,10.52-.06,21.05.05,31.57.02,1.96-.68,3.06-2.31,4.04-13.11,7.89-26.19,15.84-39.25,23.81-1.37.84-2.55.91-3.94.07-13.18-8.04-26.37-16.06-39.57-24.06-1.4-.85-2.02-1.93-2-3.64.08-10.66.1-21.32.06-31.97,0-1.94.75-3.1,2.38-4.05,4.78-2.77,9.4-5.85,14.27-8.44,2.84-1.51,4.05-3.56,4.33-6.61.13-1.38-.1-2.24-1.16-3.11-4.76-3.88-9.47-7.81-14.18-11.74-2.47-2.06-3.36-4.62-2.48-7.14,1-2.84,3.32-3.65,6.05-3.88,6.31-.54,12.62-1.16,18.94-1.69,1.16-.1,1.79-.56,2.21-1.66.82-2.13,1.66-4.29,2.77-6.28.88-1.58.54-1.86-1.1-1.85-18.28.03-36.56.03-54.84,0-1.34,0-1.66.42-1.7,1.71-.31,9.84-.7,19.68-1.05,29.52-1.28,35.72-2.55,71.44-3.89,107.16-.07,1.98.25,2.61,2.41,2.6,25.63-.08,51.27-.05,76.9-.05Zm74,4.66c-1.13,0-1.84,0-2.56,0-17.27.01-34.54.04-51.81.03-32.99-.02-65.98.04-98.97-.14-12.65-.07-24.82,12.23-20.66,27.07,2.64,9.42,10.76,15.44,20.8,15.44,50.6.01,101.2-.02,151.8-.05.48,0,1.06.27,1.52-.36-4.06-4.51-6.26-9.87-7-15.81-.18-1.45-.72-1.67-2.02-1.67-47.02.03-94.05.01-141.07,0-.74,0-1.5.05-2.22-.08-1.24-.22-1.85-1.06-1.8-2.31.05-1.24.71-2.01,1.99-2.12.54-.05,1.08-.02,1.62-.02,46.15,0,92.3,0,138.44,0,4.44,0,4.5.01,5.15-4.26.87-5.69,2.85-10.9,6.81-15.72Zm-97.94-109.68c-.07.44-.16,1.24-.33,2.03-1.35,6.12-2.73,12.23-4.08,18.35-.16.74-.64,1.66.26,2.22.79.49,1.37-.28,1.97-.64,5.46-3.34,10.93-6.66,16.36-10.06,2.26-1.42,4.32-1.39,6.59.06,5.34,3.41,10.76,6.69,16.17,9.99.69.42,1.43,1.37,2.32.63.73-.61.19-1.51.02-2.28-1.4-6.38-2.78-12.77-4.24-19.15-.55-2.4.19-4.09,2.1-5.64,5.03-4.08,9.94-8.29,14.88-12.49.53-.45,1.37-.85,1.1-1.76-.29-.98-1.21-.9-2.02-.97-6.11-.52-12.22-1.16-18.34-1.55-3.36-.22-5.45-1.65-6.69-4.82-2.17-5.54-4.56-11-6.91-16.47-.37-.85-.38-2.21-1.74-2.18-1.35.03-1.3,1.42-1.66,2.26-2.44,5.69-4.87,11.39-7.15,17.14-1,2.52-2.69,3.73-5.3,3.95-6.38.55-12.76,1.14-19.14,1.71-.91.08-2.09-.19-2.4.99-.27,1.03.81,1.46,1.44,2,4.84,4.1,9.68,8.19,14.56,12.24,1.3,1.09,2.29,2.29,2.24,4.45Zm-76.07,114.55c4.32-4.41,8.93-7.77,14.9-8.89.94-.18,1.12-.71,1.14-1.56.05-2.63.18-5.25.27-7.88,1.01-29.04,2.02-58.08,3.04-87.12.5-14.28,1.01-28.56,1.58-42.84.06-1.62-.36-1.83-1.76-1.24-6.68,2.81-10.6,7.65-11.17,14.99-.13,1.68-.12,3.37-.23,5.05-1.3,21.46-2.63,42.92-3.93,64.38-1.06,17.63-2.09,35.26-3.13,52.89-.24,4.08-.48,8.15-.71,12.23Z"/>
  <path class="cls-1" d="m103.01,111.65c.07-.08.14-.17.22-.25.17.16.13.31-.04.44-.06-.06-.11-.13-.17-.19Z"/>
</svg>