<?xml version="1.0" encoding="UTF-8"?>
<svg id="Layer_1" data-name="Layer 1" xmlns="http://www.w3.org/2000/svg" viewBox="0 0 287.85 305.18">
  <defs>
    <style>
      .cls-1 {
        fill: #fcfdfc;
      }

      .cls-1, .cls-2 {
        stroke-width: 0px;
      }

      .cls-2 {
        fill: #3f979b;
      }
    </style>
  </defs>
  <path class="cls-2" d="m250.13,190.67c-2.11,1.3-4.21,2.63-6.33,3.91-1.58.96-1,1.57.23,2.28,1.71.97,3.43,1.96,5.02,3.12,6.14,4.5,7.74,11.91,3.85,18.47-.94,1.58-.59,2.32.62,3.37,9.57,8.34,19.12,16.72,28.63,25.14,1.15,1.01,3.29,1.83,2.58,3.71-.67,1.77-2.75.86-4.17.86-69.78.08-139.55.13-209.33.14-21.89,0-43.77-.08-65.66-.12-.09,0-.17,0-.26,0-1.06-.09-2.36.36-2.93-1.01-.57-1.39.66-2.01,1.43-2.71,5.86-5.29,11.72-10.57,17.62-15.82,4.87-4.33,9.76-8.65,14.72-12.88,1.14-.97,1.26-1.59.53-2.94-3.91-7.29-2.21-14.54,4.42-19.2.86-.6,1.17-1.3,1.43-2.26,1.22-4.49,3.81-7.82,8.34-9.4.81-.28,1.49-.53,1.84-1.54,2.37-6.64,5.55-12.92,8.81-19.15,1.38-2.64,2.12-5.38,2.49-8.31,1.25-9.7,2.59-19.39,3.93-29.08.94-6.8,4.74-11.38,10.95-14.16,4.93-2.21,9.93-4.23,15-6.1,2.67-.98,3.25-3.31,1.46-5.56-.85-1.07-1.75-2.14-2.38-3.35-1.42-2.71-2.21-5.57-5.05-7.63-2.74-1.99-2.7-6.49-.68-9.34.71-1.01.58-1.93.44-2.92-.93-6.47.83-12.41,3.53-18.16,1.24-2.65,3.42-4.24,6.13-5.14,6.43-2.15,12.83-1.95,19.15.46,2.49.95,4.51,2.53,5.64,4.99,2.64,5.78,4.34,11.76,3.12,18.21-.23,1.22-.12,2.19.64,3.32,2.08,3.07.65,8.34-2.7,10.07-1.19.62-1.8,1.37-2.17,2.59-.74,2.4-1.98,4.52-3.64,6.44-2,2.31-1.15,5.02,1.71,5.91,5.48,1.71,10.9,3.61,16.21,5.83,6.94,2.9,10.54,8.22,11.63,15.45,1.27,8.41,1.88,16.88,2.49,25.36.11,1.52.05,3.07.81,5.12.65-6.27,1.2-11.96,1.84-17.64.44-3.92.97-7.83,1.53-11.74.82-5.81,3.84-9.91,9.34-12.25,5.61-2.38,11.19-4.79,17.02-6.57,2.8-.85,3.6-2.84,2.25-5.48-.51-.99-1.11-1.96-1.42-3.02-.51-1.72-1.44-2.83-3.03-3.81-3.28-2.02-4.18-7.23-1.92-10.22.64-.85.82-1.6.68-2.58-.93-6.49,1.22-12.36,3.75-18.13.85-1.94,2.55-3.01,4.52-3.54,6.85-1.85,13.72-1.97,20.59-.03,3.4.96,5.58,3,6.51,6.56,1.39,5.27,2.44,10.53,1.51,16-.13.76-.09,1.4.37,2.16,2.16,3.58,1.1,7.88-2.39,10.06-.58.36-1.27.55-1.49,1.31-.87,3.09-2.31,5.85-4.31,8.4-1.05,1.34-.12,2.31,1.43,2.75,4.81,1.35,9.26,3.58,13.76,5.71,6.13,2.89,9.79,7.41,10.82,14.26,2.21,14.59,5.13,29.06,7.09,43.69.24,1.78.24,3.59.35,5.39-1.54.94-2.09.28-2.28-1.3-.48-3.88-1.05-7.74-1.58-11.61-.09-.49-.18-.98-.27-1.47-.22-1.39-.44-2.79-.66-4.18-.27-1.35-.53-2.71-.8-4.06-.79-4.82-1.57-9.65-2.36-14.47-.1-.5-.21-.99-.31-1.49-.44-2.58-.89-5.15-1.33-7.73-.06-.34-.12-.68-.18-1.02-.36-4.62-1.72-8.77-5.79-11.49-5.02-3.35-10.56-5.64-16.21-7.7-.76-.28-1.32-.49-1.84.54-1.95,3.83-4.98,6.73-8.45,9.17-1.26.89-1.69,1.9-1.67,3.43.06,5.83-.02,11.66-.06,17.49,0,.68-.04,1.37-.12,2.05-.07.56-.4.95-1.01.94-.59,0-1-.36-1.1-.9-.12-.67-.14-1.36-.13-2.04.07-5.91.11-11.83.29-17.74.05-1.55-.44-2.54-1.69-3.43-3.65-2.6-6.99-5.54-9.26-9.49-.5-.88-1-.89-1.87-.58-5.73,2.04-11.43,4.14-16.95,6.72-4.21,1.97-6.52,5.15-7.22,9.61-1.87,11.86-3.16,23.77-3.71,35.77-.21,4.45,1.35,8.03,4.57,10.97,1.83,1.68,3.68,3.34,5.51,5.02.5.46,1.11.95.77,1.74-.34.81-1.15.56-1.8.64-4.4-4.29-9.72-7.82-11.73-14.72-1.08,4.05-3.45,6.53-6.15,8.46-3.78,2.71-5.13,5.93-4.15,10.48.35,1.62.7,2.85,2.1,3.81,2.47,1.71,4.91,3.47,7.23,5.37,4.52,3.71,4.87,3.7,8.09-1.24.05-.07.12-.13.14-.21.63-1.82,1.67-3.66.79-5.61-1.6-3.58-.57-5.54,3.32-5.95,1.45.91,2.89,2.52,4.32-.08.37-.67,1.15-.79,1.8-.32,1.42,1.03,2.69.43,4.05-.17,2.12-.93,4.23-1.88,6.14-3.19,1.06-.73,1.98-.76,3.05-.03,2.85,1.96,6.08,3.1,9.32,4.24,5.61,1.97,10.94,4.4,14.49,9.77,2.48-4.71,6.83-6.62,11.12-8.6,1.37-.48,2.73-.97,4.1-1.45,3.34-1.12,6.6-2.42,9.21-4.91.34-.07.68-.14,1.02-.21,2.38,1.87,5.24,2.87,7.83,4.34,2.33,1.32,5.67-1.53,7.19,2.03.38-.17.81-.29,1.15-.53,2.35-1.72,4.29-1.22,5.92,1.06.06.19.12.39.18.58.43,1.94-.42,3.32-1.95,4.4Zm-81.57-5.06c.03.18-.03.49.33.25-.12-.07-.25-.14-.37-.21-.14-.04-.28-.08-.42-.11.15.03.3.05.46.08Zm32.94,16.51c.03.07.05.15.09.2.02.02.1-.01.16-.02-.1-.05-.2-.09-.29-.14-2.16-3.58-5.58-5.6-9.27-7.11-6.63-2.71-13.56-4.68-20.05-7.78-.09-.04-.27.1-.5.19.32.23.57.47.86.61,9.02,4.51,18.04,9.01,27.06,13.51.61.3,1.19.71,1.93.53Zm-146.49-6.03c-.8.56-1.36.94-1.91,1.32-2.47,1.72-5.28,3.21-8.15,1.98-2.34-1.01-3.43-.02-4.76,1.31-1.91,1.91-2.83,4.27-2.99,6.93-.4,6.45,2.57,10.87,9.25,13.54,10.91,4.36,22.46,6.17,33.93,8.21,7.43,1.32,14.92,2.29,22.43,3.09,1.96.21,2.92-.3,3.45-2.3.83-3.06,1.92-6.05,3.07-9.01.58-1.5.19-2.08-1.28-2.56-3.99-1.31-7.92-2.81-11.9-4.15-11.04-3.73-22.04-7.63-33.41-10.31-.87-.21-2.12-.28-1.85-1.63.31-1.53,1.57-.95,2.52-.8.76.12,1.49.39,2.24.59,10.59,2.9,21.02,6.28,31.36,9.97,1.87.67,3.5.76,5.41-.05,3.62-1.54,7.37-2.81,11.08-4.12,6.72-2.37,13.55-4.36,20.63-5.31.87-.12,2.06-.45,2.3.9.21,1.2-.78,1.35-1.66,1.44-9.93,1.06-19.1,4.78-28.4,8.03-.88.31-1.9.42-2.83,1.37,1.8.66,3.38,1.08,4.81,1.79,2.86,1.42,5.49,1.75,8.63.31,3.44-1.57,5.67-.53,7.51,2.76.9,1.61,2.06,2.08,3.76,2,2.99-.13,5.42.94,6.72,3.78.49,1.07,1.09,1.35,2.2,1.1,3.44-.77,6.86-1.6,10.03-3.17,9.26-4.57,10.82-14.25,3.5-21.58-2.55-2.56-5.32-4.91-8.41-6.76-3.54-2.12-5.76-4.75-5.22-9.12.07-.54.23-1.33-.43-1.62-.65-.29-1.06.39-1.51.74-2.27,1.83-4.55,3.65-6.77,5.55-4.59,3.92-10.23,6.14-15.19,9.52-3.68,2.5-8.29,2.72-12.65,1.04-3.37-1.3-4.46-3.82-2.82-7,1.99-3.84,4.94-6.92,9.2-8.11,2.47-.68,4.22-1.76,5.96-3.72,4.03-4.56,8.34-8.9,12.86-12.98,3.58-3.24,5.84-6.59,4.24-11.59-.26-.8-.22-1.7-.32-2.55-.45-4.09-.9-8.18-1.35-12.28-.09-.86-.31-1.88.93-2,1.22-.12,1.21.97,1.36,1.79.14.76.22,1.53.31,2.29.58,5.2.95,10.44,1.81,15.59.53,3.16-.3,5.42-2.51,7.58-4.97,4.86-9.8,9.86-14.74,14.76-.98.97-1.34,1.56.02,2.55,1.88,1.38,3.36,3.21,4.57,5.19.98,1.6,1.83,1.84,3.41.62,6.98-5.43,13.83-10.99,20.25-17.09,2.9-2.75,4.22-5.89,4.04-9.85-.53-11.66-1.64-23.27-3.03-34.86-.87-7.31-4.63-12.4-11.63-14.95-4.51-1.64-9.03-3.25-13.55-4.88-1.32-.48-2.11-.43-3.07,1.04-5.53,8.43-14.47,8.47-20.08.15-.81-1.19-1.42-1.39-2.67-.87-4.67,1.95-9.4,3.75-14.05,5.73-5.64,2.4-8.64,6.84-9.46,12.82-1.1,7.99-2.27,15.96-3.17,23.97-.69,6.12-2.13,11.9-5.19,17.33-2.27,4.02-3.98,8.36-6,12.53-.66,1.36-.86,2.04,1.14,2.18,3.02.21,5.95,1.03,8.17,3.31.85.87,1.21.47,1.73-.28,5.42-7.87,10.25-16.05,13.42-25.11.41-1.16.5-2.32.35-3.55-.76-6.04-1.49-12.08-2.21-18.13-.1-.82-.43-1.95.7-2.18,1.38-.28,1.39,1.04,1.51,1.9,1.35,9.6,2.94,19.18,2.67,28.92-.15,5.32-.79,10.6-2.16,15.77-.65,2.46-1.93,4.08-4.6,4.54-2.96.51-5.86,1.29-8.82,1.82-1.29.23-2.17.6-2.61,1.98-.78,2.44-2.76,3.86-4.84,5.13-3.11,1.9-4.29,1.42-5.3-2.34Zm177.15,31.21c3.07,1.9,5.53,3.39,7.96,4.94,2.16,1.37,2.81,3.4,1.75,5.2-1.17,1.99-3.1,2.25-5.53.73-4.65-2.91-9.3-5.83-13.94-8.75-1.32-.83-2.6-1.27-4.3-1.17-9.76.59-19.53,1.05-29.3,1.41-1.8.07-3.32.45-4.81,1.4-3.75,2.4-7.52,4.78-11.35,7.07-2.36,1.41-4.35,1.05-5.37-.76-1.06-1.88-.43-3.74,1.71-5.23,1.11-.78,2.54-1.16,3.41-2.49-.4-.07-.57-.12-.74-.14-6.77-.65-13.55-1.29-19.05-5.98-.73-.62-1.27-.06-1.83.3-2.82,1.88-5.97,2.98-9.2,3.89-1.32.37-2.92.31-3.93,1.07-1.44,1.07.12,2.65.08,4.04-.12,3.67-2.1,5.88-5.12,4.97-7.51-2.28-15.33-2.84-22.94-4.51-.63-.14-1.5-.67-1.88.11-.99,2.06-2.71,1.44-4.25,1.31-16.69-1.46-33.2-4.06-49.35-8.5-3.91-1.07-7.15-1.94-9.73,2.03-.12.18-.48.19-.66.36-4.26,4.1-8.51,8.22-13.1,12.66h225.41c-5.69-4.95-10.66-9.73-15.54-14.6-.34-.34-.73-.45-1.16-.39-2.17.3-4.35.62-7.24,1.03ZM6.13,249.07h274.85c-10.34-9.1-20.17-17.74-29.99-26.4-.52-.46-.98-.66-1.57-.17-1.79,1.49-4.03,2.13-6.31,3.14.53.58.91,1.03,1.32,1.43,4.58,4.53,9.02,9.21,13.88,13.45.75.66,1.8,1.31,1.36,2.52-.48,1.34-1.76.76-2.69.76-73.62.03-147.24.03-220.85.04-2.49,0-4.98-.01-7.46,0-.9,0-1.75-.08-2.1-1.09-.33-.95.45-1.4.98-1.91,4.13-3.98,8.26-7.97,12.45-11.88,1.86-1.73,3.9-3.26,5.42-5.28-1.94-1.2-3.81-2.24-5.54-3.49-1.12-.81-1.5.05-2.09.58-5.14,4.54-10.3,9.06-15.42,13.63-5.28,4.72-10.52,9.49-16.25,14.67Zm191.45-34.87c-5.95-1.99-11.55-4.02-17.37-5.38-3.17-.74-6.38-1.32-9.57-1.96-.8-.16-1.63-.38-1.5-1.39.15-1.16,1.03-1.16,1.97-.96,2.01.42,4.05.75,6.05,1.21,3.04.7,6.07,1.47,9.1,2.22.06-.16.12-.31.18-.47-8.62-5.33-17.23-10.67-26.19-16.21.39,4.2-2.19,6.55-4.32,9.1-1.06,1.27-1.23,2.24-.36,3.82,2.92,5.32,2.85,10.71-.68,15.77-.9,1.3-.6,1.81.52,2.59,4.32,3.01,9.32,3.61,14.33,4.46,4.7.8,8.67-.07,12.45-2.99,2.5-1.92,5.44-3.26,8.1-4.99,2.34-1.52,4.96-2.64,7.29-4.82Zm14.13.45c5.46,3.37,10.9,6.72,16.34,10.06.36.22.82.49,1.18.43,5.3-.92,10.82-.77,15.85-2.95,9.06-3.92,9.78-15.38,2.59-20.22-2.21-1.49-4.45-2.87-6.85-4.03-.72-.35-1.34-.65-2.15-.15-3.55,2.18-7.12,4.31-10.68,6.46,1.84.28,3.51-.01,5.16.05,1.17.04,3.25-1.04,3.31,1.07.06,2.09-2.1,1.23-3.26,1.27-8,.28-15.27,2.42-21.5,8.01Zm-105.31-109.72c.3-.03.82-.04,1.32-.13.5-.1,1-.24,1.47-.44,5.71-2.39,8.59-7.04,10.25-12.72,1.47-5.04,1.25-9.62-2.71-13.61-.88-.89-1.16-1.07-2.12-.23-1.99,1.75-4.44,2.48-7.04,2.86-3.22.47-6.29-.15-9.38-.94-3.21-.82-4.13-.28-5.14,2.86-2.01,6.22.18,11.67,3.64,16.59,2.22,3.14,5.13,5.85,9.72,5.78Zm80.35-17.18c-2.89-.07-5.76,3.2-5.44,6.08.71,6.45,3.01,12.13,8.83,15.77,3.92,2.45,7.48,2.25,11.17-.61,6.09-4.71,7.27-11.62,7.99-18.55.35-3.36-2.41-4.71-5.34-3.06-3.29,1.86-6.8,2.24-10.45,1.62-2.45-.41-4.88-.91-6.76-1.26Zm7.75-5.64c5.79-.13,10.41-.37,15.02-.83,1.66-.17,2-.81,1.73-2.3-.51-2.87-1.02-5.72-1.87-8.52-.73-2.38-2.23-3.74-4.57-4.4-6.35-1.78-12.69-1.74-19.04,0-1.8.5-2.99,1.54-3.73,3.23-1.37,3.17-2.13,6.5-2.92,9.84-.39,1.67.28,1.9,1.64,1.98,4.96.32,9.92.71,13.74.99Zm-71.31-7.99c-.02-3.22-.86-5.98-1.59-8.77-1.28-4.9-4.36-7.82-9.34-8.78-2.62-.51-5.26-1.01-7.92-.65-4.09.54-8.33,1.03-10.7,5.11-1.91,3.3-2.78,6.98-3.48,10.71-.32,1.69.34,1.62,1.64,1.2,3.11-1,6.32-1.51,9.6-1.67,7.33-.35,14.56.03,21.78,2.85Zm12.25,158.36c-.21-1.56-1.08-3.06-1.71-4.64-1.12-2.8-2.88-4.57-6.23-4.16-1.56.19-3.01-.33-4.09-1.67-3.37-4.16-3.43-4.02-8.33-2.41-2.55.84-4.02,2.17-4.41,4.82-.15,1-.64,1.94-.95,2.92-1.23,3.88-1.77,3.16,2.35,4.07,6.91,1.53,14.11,1.57,20.84,4.07,1.51.56,2.6-.79,2.53-3Zm25.33-46.33c-.78-.07-1.01.26-1.21.66-.21.43-.22.88.14,1.17.59.49,1.23.93,1.89,1.33,15.55,9.57,31.1,19.12,46.64,28.69,9.71,5.98,19.4,11.98,29.11,17.94.74.45,1.64,1.37,2.45.21.85-1.22-.39-1.58-1.11-2.11-.28-.2-.56-.39-.86-.57-11.59-7.14-23.17-14.29-34.76-21.43-13.57-8.36-27.14-16.72-40.72-25.07-.58-.35-1.2-.64-1.58-.84Zm-55.53,13.37c5-.28,9.1-2.13,12.34-5.8.32-.37.74-.84.75-1.27.05-1.88-4.6-5.58-6.53-5.43-3.89.31-7.05,1.99-9.57,4.9-1.34,1.54-3.31,3.22-2.49,5.3.87,2.23,3.56,1.93,5.51,2.29Zm100.62.74c8.27-8.95,20.36-9.48,29.62-15.37-3.34-2.61-6.72-3.68-10.77-.75-2.08,1.51-4.86,2.05-7.34,3-2.32.9-4.63,1.83-6.69,3.23-3.3,2.25-5.4,5.16-4.82,9.88Zm-32.43-15.06c9.46,5.48,21.45,5.73,29.42,14.65.58-2.67-.16-4.41-1.46-6.03-2.38-2.97-5.51-4.85-8.99-6.22-2.71-1.07-5.71-1.66-8.11-3.2-3.91-2.51-7.34-2.65-10.87.81Zm4.47,8.93c8.18,4.97,16.28,9.8,24.26,14.8,1.89,1.19,3.27,1.09,5.08-.07,6.42-4.12,12.95-8.08,19.43-12.11,1.02-.64,2.03-1.3,3.3-2.12-1.39-.36-2.04.34-2.77.7-6.12,3.11-12.26,6.16-18.3,9.41-2.96,1.59-5.58,1.46-8.5-.09-6.44-3.41-12.98-6.62-19.5-9.89-.86-.43-1.7-1.15-3.01-.64Zm-119.87,2.84c2.8-1.46,4.54-2.91,5.5-5.29.73-1.81.19-2.82-1.45-3.71-6.2-3.35-13.27-1.02-16.43,5.53-.51,1.06-1.37,2.29-.46,3.35.98,1.14,2.39.53,3.61.12,2.65-.92,4.66-2.84,6.89-4.43,1.03-.74,2.19-1.21,3.3-.26,1.08.92.16,1.87-.2,2.78-.15.38-.3.77-.75,1.92Zm191.72-9.68c0-.46-.21-.83-.6-1.05-.63-.35-1.14.02-1.65.34-4.13,2.59-8.26,5.19-12.41,7.76-8.58,5.32-17.2,10.61-25.75,15.99-.93.59-3.04,1.08-2.2,2.48.98,1.62,2.41-.15,3.47-.69,2.05-1.05,3.98-2.35,5.94-3.57,10.41-6.44,20.82-12.89,31.21-19.35.78-.49,1.69-.88,1.98-1.91Zm-64.47-78.28c-1.52,2.88-1.55,2.95.2,5.2,2.22,2.86,5.09,5.03,7.89,7.28.53.42,1,.6,1.6.18,3.22-2.29,6.23-4.79,8.21-8.31.4-.71.67-1.53.04-2.14-.83-.81-1.33.26-1.89.6-3.85,2.35-7.76,2.42-11.66.22-1.54-.87-2.93-2.02-4.39-3.04Zm6.05,117.74c.08.2.17.4.25.61,8.03-.43,16.07-.61,24.7-1.63-3.97-2.45-7.38-4.55-10.77-6.66-.54-.34-1.01-.54-1.64-.14-4.17,2.62-8.36,5.21-12.55,7.82Zm-92.65-122.09c-.22,1.91-1.28,3.47-.05,5.15,1.97,2.68,4.49,4.71,7.87,4.6,3.56-.12,6.16-2.32,8.03-5.29.93-1.48.14-3-.63-4.03-.65-.87-1.45.68-2.31.9-.82.21-1.58.63-2.39.89-3.82,1.23-7.21,0-10.52-2.22Zm-7.83-23.13c2.25-4.54,3.39-5.1,7.94-4.11.92.2,1.84.38,2.75.6,5,1.17,9.43.24,13.43-3.67-7.28-1.37-14.21-1.18-21.11.45-4.46,1.05-4.81,1.83-3.01,6.73Zm111.33,135.45c-.96-.96-1.72-1.42-2.95-.65-9.62,5.95-19.27,11.86-28.9,17.8-.7.43-1.65.92-.88,1.99.65.9,1.38.31,2.02-.08,9.8-5.99,19.6-11.98,29.39-17.99.42-.26.77-.62,1.32-1.07Zm-121.36-48.79c-3.35,7.1-7.45,13.73-12,20.72,3.01-.73,5.49-1.31,7.96-1.94.88-.22,1.43-.78,1.73-1.7,1.81-5.55,2.25-11.27,2.31-17.08Zm126.88,34.54c10.15-5.22,20.3-10.43,30.94-15.9-.85-.05-1.14-.16-1.33-.06-6.89,3.74-14.43,5.87-21.61,8.88-3.34,1.4-6.33,3.42-8,7.08Zm-3.4-118.42c-7-.12-13.63.08-20.25-.48-6.14-.52-6.14-.46-4.22,5.58.04.11.22.18.34.26,3.46-4.86,3.98-5.05,10.21-3.61.83.19,1.66.4,2.5.57,4,.85,7.74.36,11.43-2.33Zm-82.59-2.49c1.92-5.26,1.43-6.03-4.11-6.71.88,2.57,4.27,3.5,4.11,6.71Zm.81,8.17c1.79-2.21,2.52-4.15,1.55-6.44-.68,1.95-1.5,3.86-1.55,6.44Zm54.9.15c-.76,2.3.07,4.12,1.88,6.36.01-2.77-.98-4.54-1.88-6.36Zm33.47-2.75c.59-4.22.49-4.32-2.93-3.04,1.31.57,1.96,1.67,2.93,3.04Zm-121.96-4.04c-1.05,2.26-.46,4.14,1.5,6.42-.61-2.62-1.05-4.52-1.5-6.42Zm123.39,7.53c-.3,1.34-.59,2.68-.89,4.01.97-1.19,1.61-2.45.89-4.01Zm27.71,95.03c-.06-.06-.11-.17-.17-.18-.06,0-.13.09-.2.15.06.06.12.16.19.17.06,0,.13-.09.19-.13Zm-70.22.64c.06-.04.12-.08.18-.13-.05-.05-.1-.14-.16-.14-.06,0-.12.07-.18.12.05.05.11.1.16.15Zm69.14-.2c-.05-.03-.12-.09-.16-.07-.23.08-.23.18-.01.28.04.02.12-.03.16-.07.02-.02,0-.09.01-.14Zm2.02-.94l-.15-.09-.02.13.18-.04Zm-70.13,1.67c.06-.05.13-.1.19-.14-.06-.05-.11-.15-.18-.15-.06,0-.13.08-.19.13.06.05.12.11.17.16Zm-115.34,8.53l-.11.18.16.02-.05-.2Z"/>
  <path class="cls-1" d="m168.56,185.61c-.15-.03-.3-.05-.46-.08.14.04.28.08.42.11l.04-.04Z"/>
  <path class="cls-1" d="m168.52,185.65c.12.07.25.14.37.21-.35.25-.29-.06-.33-.25,0,0-.04.04-.04.04Z"/>
  <path class="cls-1" d="m240.03,185.93c-.05.04-.12.14-.19.13-.06,0-.12-.11-.19-.17.07-.05.14-.15.2-.15.06,0,.11.12.17.18Z"/>
  <path class="cls-1" d="m169.81,186.57c-.05-.05-.11-.1-.16-.15.06-.04.12-.12.18-.12.06,0,.11.09.16.14-.06.04-.12.08-.18.13Z"/>
  <path class="cls-1" d="m238.94,186.37s.02.12,0,.14c-.04.04-.12.08-.16.07-.22-.09-.21-.2.01-.28.04-.01.1.05.16.07Z"/>
  <polygon class="cls-1" points="240.96 185.43 240.79 185.47 240.81 185.34 240.96 185.43"/>
  <path class="cls-1" d="m170.83,187.1c-.06-.05-.12-.11-.17-.16.06-.05.13-.14.19-.13.06,0,.12.1.18.15-.06.05-.13.1-.19.14Z"/>
  <polygon class="cls-1" points="55.5 195.63 55.55 195.83 55.39 195.81 55.5 195.63"/>
  <path class="cls-1" d="m201.46,202.17c.1.05.2.09.29.14-.06,0-.14.04-.16.02-.05-.05-.06-.13-.09-.2,0,0-.04.05-.04.05Z"/>
  <path class="cls-2" d="m219.51,182.02c-.57,0-1.15.2-1.68-.17-1.71-5.98-3.82-11.89-2.97-18.29.86-6.53,2.76-12.83,4.28-19.21.34-1.43,1.19-1.77,2.43-.91-.03.68-.07,1.36-.1,2.05-.84,1.97-1.32,4.05-1.67,6.16-.15.68-.3,1.35-.45,2.03-.28,3.27,1.16,6.22,1.74,9.33.52,2.92,1.03,5.84,1.55,8.76.34,2.06.67,4.12,1.01,6.18-.02.68-.03,1.37-.05,2.05-1.64.9-2.23.2-2.49-1.45-.81-5.14-1.73-10.26-2.61-15.39-.08-.48,0-1.04-.76-1.46-.87,3.63-.88,7.18-.05,10.73.52,2.24,1.22,4.44,1.75,6.68.22.94.88,1.94.07,2.93Z"/>
  <path class="cls-2" d="m167,163.25c.73-6.03,1.44-12.07,2.19-18.09.11-.88.14-2.12,1.53-1.87,1.4.25.91,1.47.81,2.32-.56,5.02-1.08,10.04-1.84,15.03-.45,2.94,0,5.25,2.38,7.31,2.97,2.57,5.71,5.42,8.48,8.22.57.57,1.84,1.16.9,2.27-.94,1.11-1.71.05-2.36-.51-3.89-3.36-7.49-7.03-10.95-10.83-1-1.1-1.3-2.38-1.14-3.83Z"/>
  <path class="cls-2" d="m229.52,139.62s0-.1,0-.11,0,.11,0,.11Z"/>
</svg>