<?xml version="1.0" encoding="UTF-8"?>
<svg id="Layer_1" data-name="Layer 1" xmlns="http://www.w3.org/2000/svg" viewBox="0 0 226.15 248.42">
  <defs>
    <style>
      .cls-1 {
        fill: #f9fbfb;
      }

      .cls-1, .cls-2, .cls-3 {
        stroke-width: 0px;
      }

      .cls-2 {
        fill: #3c8890;
      }

      .cls-3 {
        fill: #fdfdfd;
      }
    </style>
  </defs>
  <path class="cls-2" d="m163.29,172.97c1.96.96,3.5,1.69,4.98,2.52,3.88,2.17,6.18,5.52,7.72,9.53,1.03,2.67,1.18,5.45.68,8.23-.25,1.42.2,1.76,1.54,1.72,3.25-.08,6.5-.06,9.74-.05.91,0,2.14-.18,2.08,1.21-.05,1.19-1.18,1.03-2.03,1.05-1.88.03-3.75.03-5.63.07-1.02.02-1.29.39-.65,1.31.99,1.43,2.06,2.41,4.05,2.24,2.36-.21,4.76-.05,7.14-.07.95,0,1.84.16,1.84,1.31,0,1.09-.93,1.12-1.75,1.12-2.3,0-4.6,0-7.18,0,1.34,2.18,2.45,3.99,5.34,3.64,2.13-.26,4.32-.06,6.49-.06.79,0,1.51.19,1.52,1.13.01.95-.7,1.14-1.5,1.14-1.88,0-3.75.02-5.63.03-.89,0-1.24.28-.61,1.15,1.07,1.48,2.07,2.85,4.32,2.56,1.99-.25,4.04-.08,6.06-.05.95.01,2.31-.37,2.39,1.1.09,1.62-1.35,1.14-2.25,1.16-2,.06-3.99.02-6.32.02,1.47,2.32,2.57,4.38,5.67,3.92,1.91-.28,3.89-.09,5.84-.08.98,0,2.32-.28,2.42,1.12.12,1.61-1.35,1.14-2.25,1.18-1.66.08-3.32.03-4.98.05-.99.02-1.36.41-.7,1.33,1.28,1.76,2.48,3.41,5.18,3,2.12-.32,4.32-.06,6.49-.08.87,0,1.69.17,1.74,1.18.06,1.17-.92,1.1-1.71,1.11-1.95,0-3.9-.03-5.85-.03-.4,0-.96-.18-1.1.35-.07.26.21.64.4.92,1.64,2.45,3.54,4.23,6.89,3.6,1.67-.32,3.45-.09,5.19-.08.94,0,2.07-.06,2.06,1.29,0,1.31-1.14,1.06-1.96,1.07-2.3.03-4.6.01-6.94.01,1.23,3.31,3.56,5.01,6.75,5,1.66,0,3.32-.03,4.98-.02.97,0,2.34-.33,2.39,1.11.06,1.73-1.49,1.2-2.45,1.21-4.69.06-9.38.03-14.07.06-.53,0-1.27-.33-1.57.31-.28.6.4,1.01.68,1.48.48.81,1.03,1.57,1.54,2.35.39.6.52,1.29-.09,1.75-.68.51-1.39.27-1.87-.42-.95-1.36-1.93-2.7-2.77-4.13-.63-1.07-1.43-1.43-2.65-1.37-1.87.09-3.75.05-5.63.01-1.13-.02-1.25.37-.68,1.27.62.97,1.2,1.97,1.74,2.99.32.61.37,1.33-.33,1.71-.68.38-1.27.02-1.66-.58-.77-1.22-1.64-2.4-2.22-3.7-.65-1.44-1.64-1.74-3.09-1.69-2.65.1-5.31.03-8.24.03.68,1.46,1.24,2.68,1.82,3.9.36.76.7,1.58-.28,2.04-.95.44-1.43-.32-1.85-1.03-.11-.19-.2-.38-.31-.57-.84-1.4-1.03-3.79-2.45-4.1-2.55-.57-5.3-.22-7.97-.19-1,.01-.64.73-.45,1.24.4,1.08.85,2.14,1.28,3.21.26.63.09,1.18-.49,1.48-.68.36-1.31.13-1.63-.56-.62-1.3-1.24-2.61-1.71-3.97-.4-1.15-1.05-1.53-2.25-1.47-1.87.1-3.75.06-5.63.02-1.03-.02-1.27.41-.95,1.32.34.95.63,1.92.99,2.86.3.78.25,1.49-.57,1.82-.87.35-1.34-.25-1.62-.99-.46-1.21-.95-2.42-1.32-3.66-.3-1-.83-1.35-1.88-1.33-2.31.06-4.62.05-6.93-.02-1.18-.04-1.6.28-1.16,1.48.37,1.01.62,2.07.88,3.12.17.69.05,1.33-.76,1.55-.75.2-1.27-.14-1.51-.86-.27-.82-.63-1.65-.7-2.49-.21-2.39-1.47-3.01-3.74-2.83-2.65.22-5.34.16-8.01.04-1.77-.08-2.57.34-2.1,2.25.2.83.19,1.72.21,2.58.01.62-.24,1.17-.94,1.26-.76.1-1.24-.3-1.39-1.04-.09-.42-.14-.85-.19-1.28q-.4-3.74-4.04-3.74c-.29,0-.58,0-.87,0q-4.24,0-4.34,4.13c-.02.86.08,1.91-1.15,1.94-1.22.03-1.19-1.01-1.26-1.88q-.31-4.21-4.61-4.2c-.07,0-.14,0-.22,0q-3.97,0-4.25,4.03c-.06.91.09,2.12-1.29,2.05-1.37-.06-1.11-1.25-1.1-2.17q.06-3.93-3.87-3.91c-.07,0-.14,0-.22,0-1.51.04-3.36-.43-4.44.27-1.16.75-.64,2.78-.85,4.25-.13.9-.38,1.84-1.57,1.59-1.02-.21-.93-1.09-.85-1.92q.38-4.18-3.74-4.18c-2.38,0-4.78.15-7.14-.07-1.91-.18-2.55.66-2.83,2.31-.16.99-.52,1.95-.79,2.92-.21.73-.68,1.13-1.44.98-.94-.19-1-.9-.85-1.68.04-.21.09-.42.14-.63q.95-3.87-2.97-3.84c-.07,0-.14,0-.22,0-1.66.04-3.57-.43-4.9.25-1.4.71-1.31,2.9-1.95,4.4-.35.8-.65,1.8-1.79,1.35-1.12-.44-.73-1.33-.44-2.2,1.26-3.81,1.25-3.82-2.78-3.83q-4.59-.01-6.37,4.23c-.17.4-.37.78-.55,1.17-.33.7-.88.99-1.58.68-.7-.31-.89-.93-.62-1.63.42-1.07.88-2.13,1.37-3.18.42-.9.26-1.33-.82-1.3-2.24.05-4.48.08-6.71.04-.84-.01-1.3.29-1.64,1.06-.61,1.38-1.31,2.73-1.98,4.09-.35.72-.88,1.24-1.71.83-.8-.4-.77-1.08-.39-1.84.63-1.27,1.2-2.57,1.92-4.13-3.45,0-6.6.01-9.75,0-.67,0-1.04.31-1.34.88-.54,1.02-1.06,2.06-1.72,3-.64.91-.95,2.89-2.47,2.03-1.74-.98.1-2.2.49-3.27.29-.79.83-1.49,1.49-2.6-3,0-5.68,0-8.37,0-.72,0-.94.58-1.25,1.05-.98,1.43-1.94,2.87-2.93,4.28-.45.65-1.09,1.07-1.84.56-.74-.51-.62-1.22-.15-1.9.08-.12.16-.24.23-.36.64-1.11,2.29-2.33,1.83-3.2-.61-1.15-2.48-.41-3.78-.43-3.97-.09-7.94-.03-11.91-.03-.86,0-1.94.11-1.98-1.11-.05-1.41,1.14-1.2,2.05-1.25.43-.02.88-.07,1.3.02,5.2,1.16,8.15-1.7,10.6-6.11-2.11,0-4.08.03-6.04-.01-.95-.02-2.3.34-2.34-1.18-.04-1.52,1.29-1.25,2.26-1.26,1.44-.01,2.89.01,4.33.05q4.43.13,6.99-4.11c-2.03-.41-4.02-.08-5.98-.21-.92-.06-2.32.41-2.24-1.21.07-1.46,1.39-1.18,2.36-1.18,2.09-.01,4.2-.1,6.28.08,2.32.21,3.08-1.53,4.06-2.96.49-.72-.18-1.01-.83-1.03-1.37-.03-2.75.05-4.11-.06-1.02-.08-2.73.57-2.64-1.26.09-1.7,1.73-1.12,2.78-1.15,1.95-.06,3.91-.15,5.84.06,2.13.24,2.91-1.26,3.85-2.58.6-.85-.16-.95-.75-.96-1.59-.02-3.18.02-4.76-.02-.97-.02-2.29.22-2.24-1.3.04-1.37,1.27-1.09,2.17-1.09,2.31,0,4.62.05,6.93.06.57,0,1.22.16,1.63-.34.68-.82,1.95-1.65,1.7-2.62-.3-1.15-1.74-.45-2.66-.53-1.22-.11-2.45,0-3.68,0-.79,0-1.52-.28-1.49-1.19.03-.86.7-1.17,1.53-1.16,2.02.02,4.06-.18,6.06.05,2.66.31,4.14-.93,5.3-3.45-2.23,0-4.28,0-6.33,0-.88,0-1.91,0-1.91-1.2,0-1.18.98-1.23,1.89-1.23,2.24.01,4.49-.13,6.71.07,1.83.17,2.8-.7,3.67-2.06.6-.94.54-1.46-.71-1.46-1.44,0-2.89,0-4.33-.02-.97-.02-2.34.28-2.39-1.14-.06-1.51,1.33-1.18,2.28-1.19,3.68-.02,7.36-.03,11.04,0,1.21.01,1.58-.3,1.41-1.64-1.19-9.28,2.7-15.88,11.41-19.57.51-.22,1-.48,1.82-.88-1.57-.91-2.86-1.63-4.13-2.4-2.73-1.66-3.12-4.61-.88-6.91,1.26-1.29,2.59-2.51,3.91-3.74.6-.56.92-.97.07-1.69-7.54-6.38-7.38-16.26-3.95-23.81,4.48-9.84,11.81-17.34,20.29-23.8,4.32-3.3,9-5.99,14.08-7.95.37-.14.87-.16,1.09-.72-.37-.65-1.13-.73-1.74-1.01-7.58-3.57-13.74-8.72-17.88-16.08-.8-1.42-1.66-1.93-3.35-1.95-9.54-.11-16.47-11.49-11.97-19.48,1.02-1.81,2.33-3.36,4.31-4.09,1.33-.49,1.38-1.17,1.19-2.43-1.41-9.77-1.36-19.45,2.51-28.74,4.83-11.61,13.92-18.71,25.24-23.22,9.99-3.98,20.35-5.94,31.14-4.28,6.25.96,11.67,3.63,15.88,8.48.47.55.97,1,1.76,1.15,11.29,2.11,17.24,9.81,20.5,20.04,2.74,8.62,2.89,17.47,1.38,26.34-.24,1.42-.13,2.12,1.29,2.81,4.24,2.05,6.26,6.78,5.35,11.92-1.18,6.61-6.79,11.42-13.5,11.55-1.01.02-1.88-.06-2.51,1.11-4.39,8.01-10.94,13.67-19.25,17.35-.25.11-.48.28-.69.4-.01.69.55.66.9.8,12.82,5.36,22.96,14,30.81,25.37,4.11,5.96,6.72,12.45,5.62,19.92-.59,4-2.39,7.42-5.46,10.04-1.3,1.11-1.07,1.67.1,2.57,1.14.88,2.16,1.91,3.2,2.91,2.62,2.52,2.3,5.47-.79,7.29-1.23.72-2.47,1.41-4.07,2.33Zm-86.65,38.88c-.34.12-1,.13-.68.66.25.41.66-.17.99-.3.28-.15.56-.3.84-.46.84-.48,1.67-.95,2.51-1.43,1.2-.64,2.42-1.25,3.61-1.93,6.45-3.67,12.89-7.34,19.31-11.04.48-.28,1.45-.34,1.15-1.23-.46-1.33-5.33-2.76-6.58-2.02-6.55,3.93-13.11,7.82-19.62,11.82-1.94,1.19-4.22,1.73-5.94,3.31-.38.35-.92.68-.56,1.21.32.47.93.29,1.39.05.77-.39,1.51-.84,2.26-1.26,1.31-.75,2.61-1.52,3.94-2.25.67-.36,1.43-.53,1.97.16.63.81.12,1.48-.5,2.05-.26.24-.54.47-.81.71-.81.49-1.63.97-2.44,1.46-.28.16-.56.31-.84.47Zm-9.22-52.95c.22.14.44.27.64.01.02-.03-.2-.25-.31-.37-6.78-7.51-4.66-19.56,2.91-23.25.95-.46.89-1.18.82-1.98-.22-2.51-.44-5.03-.63-7.55-.06-.84-.43-1.81.4-2.43.84-.62,1.64.07,2.42.36.96.36,1.8,1.31,2.97.41,1.63-1.25,3.54-1.1,5.41-.87,3.29.4,6.56.96,9.75,1.88,7.77,2.24,15.2,5.1,20.6,11.56.86,1.03,1.17.16,1.59-.34,2.64-3.15,5.9-5.46,9.57-7.27,6.41-3.17,13.23-4.88,20.26-5.83,1.41-.19,3.2-.79,4.21.16,1.8,1.7,3.22.76,4.86.07,2-.84,2.67-.35,2.52,1.83-.18,2.66-.41,5.32-.67,7.98-.09.95.13,1.53,1,2.12,8.23,5.63,9.19,16.28,1.97,23.78,2.82-.33,4.69-1.92,6.28-3.7,5.05-5.66,5.15-12.14,2.58-18.84-2.41-6.3-6.49-11.53-11.19-16.29-7.24-7.32-15.39-13.26-25.24-16.61-2.56-.87-2.95-.68-3.69,1.81-.82,2.74-2.66,4.58-5.18,5.78-1.36.65-2.76,1.25-4.18,1.76-1.97.7-2.82,2.01-2.8,4.1.05,4.11,0,8.23-.04,12.34,0,.84.08,1.92-1.17,1.92-1.19,0-1.24-.97-1.23-1.88,0-2.74.04-5.48,0-8.23-.13-7.83,1.23-6.29-5.91-9.54-.72-.33-1.41-.73-2.1-1.12-1.96-1.12-3.28-2.77-4.05-4.89-1.05-2.89-1.21-2.95-4.19-1.91-10.69,3.73-19.43,10.31-26.91,18.65-4.31,4.81-8.08,10-9.88,16.33-2.5,8.81.93,16.73,8.61,20.06Zm46.72-121.75c-9.54,7.19-20.27,10.77-32.23,10.71-6.13-.03-6.15-.03-7.83,6.07-1.36,4.93-1.29,9.98-1.19,15.04.02,1.15.21,2.36-1.4,2.72-1.05.23-.54,1.03-.37,1.57,2.48,7.78,6.29,14.8,12.8,19.89,11.31,8.85,24.23,11.83,38.28,9.15,16.3-3.12,27.31-12.61,32.73-28.39.21-.61.99-1.55.24-1.94-2.09-1.07-1.52-2.91-1.58-4.55-.1-3.17-.24-6.34-.71-9.49-.63-4.26-1.83-8.11-5.28-11.23-3.65-3.3-6.11-7.63-8.15-12.14-.24-.53-.21-1.31-1.07-1.52-.3.4-.59.8-.9,1.19-7.73,9.59-17.75,14.69-30.05,15.28-.89.04-2.01.32-2.37-.92-.32-1.11.72-1.45,1.36-1.95,3.25-2.56,6.16-5.42,8.02-9.19.27-.13.45-.42.24-.61-.26-.23-.39.16-.56.31Zm41.85,31.68c.48-.53.62-.62.66-.74,4.92-13.29,6.03-26.75.85-40.16-3.15-8.17-8.78-14.03-18-15.36-.95-.14-1.55-.66-2.12-1.33-4.42-5.28-10.26-7.8-16.95-8.51-10.39-1.1-20.28,1.03-29.73,5.16-9.91,4.33-17.87,10.92-22.03,21.21-4.36,10.79-3.84,21.87-1.16,32.95.54,2.25,1.14,4.53,2.56,6.56.19-.26.33-.36.33-.47.02-.58,0-1.15,0-1.73-.11-6.56.52-12.94,3.59-18.92.93-1.81,1.91-2.41,3.99-2.22,14.87,1.36,27.67-3.38,38.59-13.44.6-.56,1.12-1.58,2.13-.88.89.62.44,1.57.21,2.39-1.03,3.59-2.82,6.78-5.15,9.67-.93,1.15-1.93,2.25-3.05,3.55,1.35.26,2.39-.02,3.4-.26,9.96-2.3,17.65-7.88,23.42-16.24.42-.61.62-1.61,1.66-1.45.88.13.97,1.01,1.19,1.66,1.99,6.01,5.31,11.26,9.74,15.67,3.01,3,4.33,6.5,5.03,10.49.69,3.96.76,7.96.84,12.41ZM31.83,232.47c1.26,0,1.97,0,2.68,0,30.31,0,60.61.03,90.92.03,21.14,0,42.29-.02,63.43-.05.59,0,1.42.36,1.73-.39.25-.59-.43-1-.75-1.45-5.18-7.29-10.37-14.58-15.56-21.86-1.04-1.46-1.87-3.76-3.21-4.13-1.55-.43-3.01,1.72-4.48,2.78-4.04,2.9-8.58,4.85-13.21,7.01,1.82,1.64,4.03,2.43,5.87,3.77,1.74,1.27,2.21,3.56,1.16,5.39-1,1.75-3.07,2.41-5.08,1.57-.66-.28-1.28-.66-1.91-1.02-3.82-2.18-7.62-4.39-11.45-6.56-1.48-.84-3.13-1.65-4.44.08-1.57,2.07-3.77,2.46-5.99,2.32-6.33-.4-12.69-.7-18.79-2.66-.89-.29-1.61-.28-2.42.29-3.04,2.15-6.46,2.64-10.1,2.29-4.68-.45-9.26-1.43-13.84-2.43-1.01-.22-1.76-.1-2.62.41-3.48,2.05-7,4.02-10.51,6.02-.38.21-.75.44-1.13.64-2.75,1.51-5.01,1.17-6.24-.92-1.31-2.24-.5-4.51,2.12-6.13,1.6-.98,3.35-1.76,4.8-3.19-1.18-.51-2.17-.93-3.15-1.37-4.46-2.02-8.95-4-12.63-7.37-2.38-2.18-4.77-1.89-6.59.75-1.02,1.49-2.06,2.96-3.11,4.43-5.06,7.09-10.12,14.18-15.52,21.75Zm180.23,7.33c-.03-.35,0-.52-.07-.61-10.96-13.95-22.45-27.48-33.73-41.18-1.04-1.27-2.39-1.03-3.26.38-.41.66-.81,1.32-1.32,1.94-.78.94-1,1.9-.06,3.2,6.75,9.37,13.37,18.82,20.02,28.26.48.68,1.31,1.33.85,2.3-.47.99-1.49.7-2.32.7-53.7,0-107.4,0-161.1-.01-.9,0-1.98.3-2.53-.75-.52-.99.39-1.6.86-2.26,6.31-8.88,12.64-17.74,18.97-26.61,1.2-1.69,1.94-3.99,5.07-3.02-.75-1.29-1.25-2.08-1.68-2.9-1.34-2.54-4.5-2.85-6.31-.6-7.58,9.44-15.18,18.88-22.75,28.34-3.36,4.2-6.68,8.44-10.16,12.84h199.53Zm-59.07-113.45c-.72-.29-1.13.09-1.58.28-9.9,4.36-19.78,8.76-29.7,13.06-1.4.61-1.89,1.3-1.89,2.85.05,11.84.04,23.67-.09,35.51-.02,2.17.56,2.03,2.12,1.28,6.24-2.98,12.52-5.89,18.79-8.81,2.74-1.28,5.48-2.57,8.26-3.77,2.05-.89,1.21-2.68,1.44-4.14.21-1.35-.99-1.24-1.73-1.4-3.94-.84-2.82-5.13-4.96-7.23-.73-.72-.8-2-.41-3.09.19-.54.41-1.08.69-1.58.26-.46.4-.85.2-1.41-.82-2.23.35-3.75,1.96-5.02,1.32-1.04,2.89-1.6,4.46-2.14.67-.23,1.39-.4,1.46-1.35.32-4.37.66-8.74.99-13.05Zm-46.71,33.83h.02c0-5.98-.04-11.97.03-17.95.02-1.27-.33-1.89-1.53-2.41-10.04-4.35-20.06-8.77-30.06-13.22-1.33-.59-1.63-.32-1.49,1.04.35,3.59.69,7.18.92,10.77.09,1.41.58,2.18,1.98,2.64,2.05.66,4.51,1.27,5.33,3.36,1.11,2.8,1.68,5.97,1.25,8.93-.26,1.85-1.7,3.59-2.17,5.61-.28,1.2-1.44,1.92-2.66,2.35-.8.28-2.08.16-1.77,1.61.31,1.4-.69,3.13,1.42,4.08,9.06,4.09,18.07,8.28,27.07,12.49,1.4.66,1.68.32,1.66-1.12-.06-6.06-.03-12.11-.03-18.17Zm-9.3,31.72c-10.16-5.68-19.89-11.13-29.63-16.57-.56-.31-1.12-.57-1.83-.42-11.99,2.47-17.25,13.76-11.59,23.39,3.27,5.56,8.47,8.69,14.11,11.28.39.18.91.48,1.15-.02,1.6-3.32,5.09-4.02,7.84-5.71,6.49-3.99,13.07-7.83,19.96-11.94Zm32.52-.03c.76.51,1.21.85,1.7,1.15,7.47,4.47,14.94,8.93,22.41,13.41,1.29.77,2.73,1.41,3.1,3.11.24,1.08.83.44,1.27.23,4.2-2.03,8.24-4.34,11.53-7.71,3.02-3.09,4.93-6.76,5.06-11.16.21-7.24-4.93-13.42-12.93-15.77-1.05-.31-1.9-.25-2.86.29-9.67,5.46-19.35,10.88-29.28,16.46Zm27.33,31.38c.85-.1,1.36-.47,1.63-1.11.27-.65.2-1.31-.37-1.77-.61-.5-1.27-.95-1.96-1.34-11.89-6.78-23.8-13.54-35.68-20.35-.99-.57-2.68-.71-2.59-2.24.08-1.41,1.66-1.66,2.69-2.24,14.96-8.4,29.94-16.78,44.91-25.16,1.24-.7,2.58-1.45,1.57-3.15-.97-1.64-2.15-.5-3.15.06-16.34,9.19-32.68,18.4-48.98,27.65-1.22.69-2.15.76-3.38.06-11.27-6.44-22.56-12.84-33.86-19.22-5.27-2.97-10.59-5.88-15.9-8.78-.85-.46-1.89-1.17-2.62.15-.71,1.27-.12,2.2,1.04,2.85.5.28,1,.58,1.5.86,14.92,8.34,29.83,16.68,44.74,25.04.8.45,1.88.75,1.98,1.82.12,1.21-1.09,1.39-1.85,1.83-11.2,6.44-22.42,12.84-33.63,19.27-1.5.86-2.99,1.75-4.45,2.67-.76.48-1.07,1.21-.63,2.05.46.87,1.23,1.21,2.18.84.47-.18.89-.47,1.33-.72,13.08-7.48,26.18-14.93,39.22-22.48,1.79-1.04,3.16-.97,4.94.06,13.25,7.62,26.57,15.13,39.87,22.67.49.28,1.02.5,1.44.71Zm7.11-60.11c.02-.88-2.65-2.56-3.48-2.19-1.72.78-3.52,1.58-5.37,1.5-2.28-.11-2.64.96-2.55,2.81.07,1.39-.08,2.59-1.72,3.33-10.76,4.89-21.49,9.85-32.2,14.85-3.64,1.7-7.17,1.79-10.83.08-9.79-4.57-19.57-9.19-29.45-13.56-3-1.33-5.03-2.83-4.62-6.4.08-.65-.04-1.38-.99-1.32-2.59.16-4.94-.66-7.35-1.49-1.46-.5-2.32,1.07-2.97,1.98-.7.97.79,1.07,1.32,1.36,15.88,8.97,31.8,17.88,47.68,26.85,1.22.69,2.13.74,3.35.02,4.84-2.86,9.73-5.64,14.63-8.39,11.19-6.27,22.41-12.51,33.6-18.77.34-.19.84-.23.94-.67Zm-55.19-21.72c0,1.11,0,1.9,0,2.69,0,11.47.02,22.95.02,34.42,0,3.15.61,3.81,3.8,3.99.87.05,1.71-.09,2.56-.29,1.63-.37,2.3-1.14,2.29-2.97-.08-11.83-.02-23.67,0-35.5,0-.36-.02-.72,0-1.08.04-.75-.25-1.1-1.02-.87-2.51.76-4.98.48-7.66-.39Zm-20.62,74.01c4.64,1.11,8.72,1.83,12.88,2.16,5.12.4,8.9-1.76,11.72-5.9,1.43-2.1,2.48-4.39,3.25-6.8.25-.78.75-1.66-.41-2.23-1.09-.54-1.91-1.79-3.46-.89-7.8,4.49-15.63,8.92-23.97,13.66Zm-16.62-77.75c-4.53,2.35-6.64,8.38-4.92,14.07,1.34,4.41,4.62,7.31,8.52,7.5.95.05,1.88-.01,2.7-.56.57-.38,1.02-.9.93-1.6-.11-.8-.85-.59-1.39-.65-1.51-.17-3.02-.36-4.42-.96-.72-.31-1.6-.71-1.19-1.72.37-.94,1.17-.54,1.86-.33,1.74.54,3.51.83,5.33.57,1.24-.18,2-.85,1.8-2.2-.19-1.28-1.01-1.55-2.21-1.39-1.74.23-3.46.07-5.08-.67-.7-.32-1.68-.6-1.34-1.63.34-1.03,1.22-.71,2.01-.47,1.1.34,2.22.68,3.39.58.92-.08,2.01-.06,2.34-1.16.33-1.09-.48-1.75-1.28-2.26-.72-.47-1.47-.99-2.28-1.22-2.96-.82-5.05-2.24-4.61-5.75,0-.04-.1-.09-.16-.14Zm83.34-.06c-.54.57-.54,1.11-.46,1.59.36,2.04-.59,2.98-2.48,3.52-1.72.49-3.39,1.23-4.79,2.41-.57.48-.99,1.09-.8,1.88.21.88,1.02.96,1.71,1.07,1.31.21,2.57-.18,3.82-.51.82-.21,1.85-.66,2.19.52.32,1.13-.79,1.4-1.56,1.7-1.5.57-3.08.77-4.68.58-1.2-.15-2.22-.09-2.32,1.44-.1,1.48.85,2.04,2.12,2.21,1.75.23,3.44-.11,5.09-.67.74-.25,1.62-.73,1.97.41.31,1.01-.57,1.37-1.3,1.69-1.4.61-2.89.86-4.4,1.02-.51.05-1.31-.32-1.43.5-.11.68.38,1.23.97,1.57,1.56.89,3.19.74,4.8.17,4.17-1.49,6.85-5.66,6.95-10.73.08-4.44-1.82-7.8-5.39-10.36Zm-25.37,80.04c1.58-.07,3.03.21,4.43-.3,1.01-.37,1.71-.98,1.88-2.13.17-1.16-.69-1.5-1.41-1.91-4.8-2.76-9.62-5.48-14.41-8.26-1.01-.59-1.43-.52-1.77.69-.79,2.87-2.13,5.51-3.95,7.86-.9,1.17-.78,1.58.68,1.93,4.84,1.18,9.76,1.74,14.56,2.12Zm-8.36-21.24c8.84,5.03,17.22,9.79,25.62,14.56.27-.77-.23-1.01-.61-1.33-.79-.66-2.2-1.26-1.24-2.51.85-1.1,2.13-.47,3.13.15,1.54.94,3.03,1.95,4.56,2.9.45.28,1.01.92,1.5.32.61-.75-.18-1.17-.7-1.48-1.98-1.18-4-2.28-5.98-3.47-6.37-3.81-12.73-7.64-19.1-11.45-.64-.38-1.21-1.02-2.14-.45-1.47.88-3.01,1.65-5.04,2.75ZM59.45,68.26c-.04,6.23,4.77,11.76,10.12,12.17,1.02.08,1.66.17,1.14-1.31-1.95-5.55-3.81-11.14-5.57-16.75-.42-1.34-.91-1.42-1.94-.77-2.63,1.66-3.56,4.2-3.75,6.66Zm107.27.23c-.2-2.36-1.03-4.81-3.34-6.56-1.24-.93-1.86-1.02-2.47.8-1.85,5.52-3.16,11.23-5.5,16.58-.57,1.31-.03,1.27.99,1.17,5.52-.58,10.37-6,10.31-11.98Zm-87.63,57.26c10.66,4.77,21.13,9.95,32.48,14.2-3.73-7.97-22.78-14.93-32.48-14.2Zm35.71,14.13c11-4.29,21.36-9.21,32.06-13.87-6.75-2.88-28.89,6.62-32.06,13.87Zm-12.78-35.56c.72,3.01,2.64,4.39,4.9,5.46,1.88.89,4.02,1.21,5.62,2.68.4.36.7.37,1.1,0,1.64-1.51,3.81-1.99,5.75-2.9,2.2-1.02,4.17-2.3,4.81-5.25-7.39,1.81-14.66,1.87-22.18,0Z"/>
  <path class="cls-1" d="m77.48,211.38c.81-.49,1.63-.97,2.44-1.46.13.14.26.27.38.41-.84.48-1.67.95-2.51,1.43-.1-.13-.21-.25-.31-.38Z"/>
  <path class="cls-1" d="m76.95,212.22c-.34.13-.75.7-1,.29-.32-.53.34-.54.68-.66.1.12.21.24.31.37Z"/>
  <path class="cls-3" d="m114.14,37.16c.17-.14.3-.54.56-.31.21.19.03.48-.24.61-.11-.1-.21-.2-.32-.3Z"/>
  <path class="cls-1" d="m76.64,211.85c.28-.16.56-.31.84-.47.1.12.21.25.31.38-.28.15-.56.3-.84.46-.1-.12-.21-.24-.31-.36Z"/>
  <path class="cls-1" d="m67.75,158.54c.11.13.33.35.31.37-.2.26-.43.13-.64-.01.11-.12.22-.24.33-.36Z"/>
  <path class="cls-2" d="m87.79,70.37c.03-1.47.28-2.89,1.21-4.07,1.23-1.57,2.84-2.19,4.79-1.61,2.15.64,3.54,2.92,3.52,5.66-.03,2.77-1.54,5.28-3.58,5.92-1.94.61-3.86-.3-5.04-2.37-.63-1.1-.83-2.29-.9-3.53Z"/>
  <path class="cls-2" d="m138.27,70.7c-.02.24-.02.67-.09,1.1-.46,2.8-2.33,4.66-4.61,4.63-2.12-.03-3.99-1.94-4.47-4.57-.06-.35-.1-.72-.12-1.07-.26-3.5,1.69-6.23,4.46-6.28,2.84-.05,4.9,2.5,4.84,6.2Z"/>
  <path class="cls-2" d="m113.12,91.11c-3.35-.15-6.46-1.13-9.13-3.29-.65-.53-1.57-1.1-.88-2.11.71-1.04,1.51-.34,2.22.13,5.86,3.9,9.74,3.89,15.67-.11.81-.55,1.56-.91,2.23.02.63.89-.08,1.48-.69,1.98-2.72,2.24-5.88,3.24-9.42,3.36Z"/>
  <path class="cls-2" d="m113.27,79.94c-1.7,0-3.21-.42-3.83-2.18-.62-1.75.18-3.17,1.62-4.06,1.09-.67,1.39-1.46,1.35-2.64-.02-.74-.03-1.78,1.12-1.71,1.15.07.99,1.13.92,1.84-.13,1.19.24,1.94,1.23,2.68,1.32.98,1.7,2.46,1.07,4.06-.62,1.58-1.94,2-3.48,2Zm-.09-2.2c.67-.08,1.56-.06,1.56-1.16,0-.84-.65-1.31-1.4-1.31-.91,0-1.75.53-1.83,1.46-.08.96.86.91,1.67,1.02Z"/>
  <path class="cls-2" d="m134.14,55.15c2.33-.02,4.21.57,5.85,1.85.73.57,1.29,1.35.64,2.21-.65.86-1.4.28-2.04-.21-2.12-1.63-4.43-1.84-6.9-.95-.91.33-1.98.67-2.34-.56-.35-1.21.83-1.49,1.67-1.8,1.08-.39,2.21-.6,3.13-.54Z"/>
  <path class="cls-2" d="m92.55,55.14c.73-.02,1.92.21,3.06.69.73.31,1.27.79,1.01,1.65-.27.92-1.08.94-1.76.65-2.72-1.15-5.17-.83-7.4,1.14-.67.59-1.33.48-1.87-.19-.53-.66-.16-1.22.35-1.69,1.72-1.58,3.78-2.29,6.6-2.26Z"/>
</svg>