<?xml version="1.0" encoding="UTF-8"?>
<svg id="Layer_1" data-name="Layer 1" xmlns="http://www.w3.org/2000/svg" viewBox="0 0 248.27 305.18">
  <defs>
    <style>
      .cls-1 {
        fill: #3f9697;
      }

      .cls-1, .cls-2 {
        stroke-width: 0px;
      }

      .cls-2 {
        fill: #449798;
      }
    </style>
  </defs>
  <path class="cls-2" d="m194.52,259.96c-2.11,5.24-5.41,7.41-11.38,7.42-32.14.02-64.27.03-96.41.05-13.15,0-26.31.02-39.46.03-7.48,0-12.01-4.46-12.01-11.89,0-60.29.07-120.58-.1-180.87-.02-6.89,4.9-12.3,12.36-12.23,27.01.26,54.03.1,81.05.1.57,0,1.14-.01,1.71,0,1.79.05,2.87,1,2.83,2.77-.04,1.71-1.24,2.44-2.88,2.49-.43.01-.85,0-1.28,0-27.16,0-54.32.02-81.48.02-5.1,0-6.91,1.83-6.91,6.91.01,59.08.02,118.17.02,177.25,0,1.49-.03,2.99.02,4.48.1,3.35,2.3,5.58,5.68,5.65,3.7.07,7.39.01,11.09.01,42.02,0,84.04-.02,126.06-.03,4.28,0,6.35-2.1,6.35-6.44,0-42.94,0-85.89.03-128.83,0-1.99.13-3.97.19-5.96,1.18.79,2.83,1.05,3.09,2.86.06.41.41.89-.04,1.15-.48.28-.76-.19-.92-.59-.16-.4-.28-.87-.84-.73-.52.13-.49.63-.5,1.05-.09,2.68-.21,5.37-.33,8.05-.29,6.55-.1,13.12-.11,19.68,0,34.19,0,68.38,0,102.57,0,.78.12,1.6-.06,2.34-.46,1.85.57,2.45,2.08,2.67.7.1,1.42.03,2.13.03Z"/>
  <path class="cls-1" d="m213.1,74c-.23,19.83-16.26,35.77-35.76,35.57-19.81-.2-35.71-16.4-35.49-36.13.22-19.77,16.49-35.89,36.04-35.71,19.42.18,35.44,16.68,35.21,36.27Zm-65.92-.31c-.19,16.54,13.28,30.43,29.68,30.61,17.06.18,30.83-13.23,30.99-30.19.16-17-13.16-30.85-29.9-31.07-16.94-.22-30.57,13.35-30.77,30.65Z"/>
  <path class="cls-1" d="m194.52,259.96c-.71,0-1.43.07-2.13-.03-1.51-.21-2.54-.81-2.08-2.67.18-.74.06-1.56.06-2.34,0-34.19,0-68.38,0-102.57,0-6.56-.18-13.13.11-19.68.12-2.68.23-5.37.33-8.05.01-.42-.02-.92.5-1.05.56-.14.67.33.84.73.16.4.44.87.92.59.45-.26.1-.74.04-1.15-.27-1.8-1.91-2.07-3.09-2.86-.06-1.02-.38-2.07.25-3.03.57.24,1.41-.76,1.7.09.67,1.99,1.8,1.48,3.07.81.03,3.76.09,7.53.09,11.29,0,41.99,0,83.97,0,125.96,0,1.35.06,2.71-.6,3.96Z"/>
  <path class="cls-1" d="m71.45,113c4.12,0,7.67,1.44,10.62,4.26.78.74,1.17.73,1.84-.02.94-1.06,1.98-2.04,2.99-3.04,1.2-1.19,2.58-1.36,3.79-.22,1.29,1.22,1.18,2.65-.09,3.93-.2.2-.37.44-.59.61-2.81,2.23-3.95,4.63-3.32,8.63,1.24,7.9-5.08,15.1-13.21,16.19-7.92,1.05-15.43-4.44-16.84-12.32-1.45-8.06,3.44-15.72,11.24-17.54,1.17-.27,2.38-.32,3.58-.47Zm9.91,14.04c-2.68,2.59-5.07,4.9-7.45,7.21-1.08,1.04-2.27,1.59-3.58.5-2.29-1.91-4.39-4.05-6.29-6.35-.91-1.1-.72-2.47.42-3.44,1.13-.96,2.33-.92,3.41.19.85.86,1.76,1.67,2.55,2.57.94,1.06,1.69,1.21,2.73.03,1.36-1.54,2.89-2.94,4.36-4.38,1.8-1.76,1.79-1.95-.3-3.39-3.8-2.63-8.97-2.28-12.4.83-3.33,3.02-4.18,8.31-1.97,12.32,2.2,3.99,7.2,6.07,11.5,4.78,4.56-1.37,7.36-5.49,7.02-10.87Z"/>
  <path class="cls-1" d="m71.42,232.7c-6.56,0-12.52-4.51-14.42-10.92-1.93-6.52.64-13.44,6.37-17.13,5.64-3.63,13.37-3.09,18.38,1.53,1.31,1.21,1.86.88,2.77-.21.77-.93,1.63-1.8,2.55-2.57,1.27-1.07,2.69-1.07,3.8.16,1.05,1.16.88,2.48-.19,3.64-.29.31-.6.6-.93.88-2.52,2.13-3.69,4.26-3.07,8.08,1.44,8.82-6.08,16.54-15.25,16.54Zm10.01-16.05c-.88.02-1.13.61-1.52.98-2,1.91-3.98,3.85-5.97,5.76-1.21,1.16-2.56,1.67-3.93.33-1.97-1.93-3.93-3.9-5.75-5.97-1.04-1.18-.84-2.57.33-3.61,1.13-.99,2.32-.86,3.39.25.89.92,1.86,1.76,2.7,2.72.76.86,1.32,1.02,2.21.09,1.66-1.75,3.4-3.43,5.19-5.04.99-.9.98-1.48-.08-2.31-3.11-2.47-6.52-3.11-10.17-1.61-3.81,1.57-5.99,4.56-6.16,8.68-.17,4.05,1.45,7.37,5.11,9.37,3.63,1.98,7.23,1.8,10.61-.65,3.04-2.21,4.25-5.25,4.04-8.98Z"/>
  <path class="cls-1" d="m56.38,173.13c.19-6.66,3.12-11.47,8.93-14.12,5.74-2.62,11.3-1.75,16.12,2.35,1.39,1.18,2.11,1.17,3.16-.16.7-.89,1.58-1.64,2.39-2.44,1.23-1.21,2.59-1.21,3.79-.1,1.25,1.16,1.16,2.52,0,3.76-1.23,1.29-2.45,2.58-3.75,3.78-.81.75-1.02,1.41-.71,2.56,1.65,6.33-.12,11.7-5.13,15.84-4.92,4.07-10.55,4.61-16.2,1.98-5.65-2.63-8.29-7.5-8.59-13.46Zm25.11-1.45c-.63.54-1,.83-1.34,1.16-2.11,2.01-4.21,4.03-6.31,6.04-1.34,1.28-2.73,1.46-4.11.08-1.86-1.86-3.76-3.68-5.52-5.63-1.04-1.15-1.02-2.56.13-3.63,1.13-1.06,2.44-1.03,3.6.1.96.95,1.95,1.88,2.84,2.88.75.84,1.33.8,2.09,0,1.68-1.74,3.36-3.48,5.15-5.09,1.13-1.02.87-1.64-.16-2.46-3.28-2.6-6.85-3.02-10.6-1.33-3.66,1.65-5.49,4.7-5.6,8.62-.12,4.16,1.58,7.52,5.4,9.43,3.53,1.78,7.04,1.45,10.27-.86,3.07-2.19,4.3-5.25,4.16-9.33Z"/>
  <path class="cls-2" d="m137.68,218.96c-9.88,0-19.76,0-29.64,0-.64,0-1.3.06-1.91-.08-1.4-.33-2.29-1.27-2.25-2.72.04-1.45.98-2.31,2.43-2.52.49-.07.99-.03,1.49-.03,19.69,0,39.38-.01,59.07-.01.64,0,1.29-.05,1.92.05,1.54.25,2.43,1.24,2.44,2.77,0,1.5-.98,2.3-2.41,2.51-.63.09-1.28.05-1.92.05-9.74,0-19.48,0-29.21,0h0Z"/>
  <path class="cls-1" d="m137.71,123.92c9.81,0,19.61,0,29.42,0,.64,0,1.3-.07,1.91.07,1.33.3,2.12,1.2,2.11,2.57,0,1.36-.73,2.29-2.13,2.5-.7.1-1.42.1-2.12.1-19.61.01-39.23.02-58.84.02-.64,0-1.3.03-1.91-.11-1.43-.33-2.25-1.34-2.15-2.77.09-1.34,1.01-2.16,2.38-2.34.49-.07.99-.02,1.49-.02,9.95,0,19.9,0,29.85,0v-.02Z"/>
  <path class="cls-2" d="m137.69,173.81c-9.87,0-19.75,0-29.62,0-.64,0-1.29.04-1.91-.06-1.48-.24-2.3-1.22-2.24-2.66.06-1.31.83-2.25,2.24-2.44.42-.06.85-.04,1.28-.04,19.96,0,39.92,0,59.89,0,.64,0,1.31-.06,1.91.11,1.21.33,1.95,1.18,1.95,2.48,0,1.29-.73,2.15-1.96,2.45-.68.16-1.41.11-2.12.12-9.8,0-19.61,0-29.41,0v.04Z"/>
  <path class="cls-2" d="m195.02,118.75c-1.26.67-2.4,1.18-3.07-.81-.29-.85-1.13.15-1.7-.09.45-1.25,1.41-1.78,2.64-1.55,1.26.24,2.18.97,2.12,2.45Z"/>
  <path class="cls-1" d="m164.58,89.11c.59-2.86.98-5.54,1.71-8.13.69-2.47.02-4.17-1.96-5.7-1.9-1.48-3.6-3.22-5.39-4.84-.87-.79-1.27-1.73-.85-2.86.39-1.06,1.31-1.43,2.36-1.53,2.97-.3,5.93-.67,8.9-.89,1.17-.09,1.78-.61,2.21-1.63,1.14-2.68,2.34-5.33,3.51-8,.47-1.08,1.01-2.07,2.39-2.11,1.46-.05,2.14.88,2.63,2.08,1.09,2.62,2.22,5.23,3.3,7.86.43,1.05.98,1.7,2.29,1.79,3.04.22,6.07.68,9.11.99,1.07.11,1.96.42,2.29,1.55.31,1.06-.03,1.92-.85,2.67-2.21,2-4.34,4.1-6.6,6.05-1.06.91-1.34,1.83-1.03,3.17.61,2.62,1.07,5.29,1.62,7.92.26,1.22.49,2.41-.74,3.27-1.19.83-2.21.41-3.33-.29-2.4-1.51-4.89-2.88-7.3-4.38-.97-.6-1.75-.6-2.72.01-2.52,1.59-5.09,3.11-7.68,4.59-1.93,1.1-3.85.17-3.89-1.58Zm2.64-18.62c.81,1.55,1.82,2.24,2.75,2.92,2.12,1.53,2.75,3.42,1.98,5.9-.35,1.11-.43,2.29-.67,3.6,2.35-.84,3.93-2.94,6.24-3,2.31-.05,3.85,2.16,6.09,2.9.05-2.4-1.23-4.66-.6-6.82.65-2.24,3.24-3.2,4.9-5.65-5.72.92-9.04-1.41-10.38-6.99-1.31,5.7-4.87,7.7-10.31,7.13Z"/>
</svg>