<?xml version="1.0" encoding="UTF-8"?>
<svg id="Layer_1" data-name="Layer 1" xmlns="http://www.w3.org/2000/svg" viewBox="0 0 248.27 305.18">
  <defs>
    <style>
      .cls-1 {
        fill: #2b8b8d;
      }

      .cls-1, .cls-2 {
        stroke-width: 0px;
      }

      .cls-2 {
        fill: #fafcfb;
      }
    </style>
  </defs>
  <path class="cls-1" d="m237.57,107.92c.46.74,1.22,1.29,1.43,2.2-.09.3.08.36.33.35.67,1.48.86,3.04.86,4.66,0,31.54.01,63.08.02,94.62,0,5.39-3.38,8.73-8.82,8.95-26.86,1.1-53.72,2.23-80.58,3.34-1.58.07-3.08.8-4.7.54-.59-.1-.9.19-1.14.73-1.87,4.1-5.19,6.75-8.99,8.91l-.88.42c-2.69.95-5.44,1.63-8.27,1.99-.58.06-1.17.11-1.75.17-.58,0-1.16,0-1.74,0-.44-.03-.87-.05-1.31-.08-2.95-.51-6.02-.52-8.72-2.09-1.17-.67-2.33-1.34-3.5-2.01-1.63-1.46-3.57-2.6-4.78-4.51-.13-.2-.27-.4-.4-.6-.89-2.52-2.48-3.41-5.33-3.51-27.53-.98-55.06-2.17-82.59-3.28-1.33-.05-2.55-.47-3.81-.79-.16-.03-.32-.05-.49-.08-2.72-2.09-4.3-4.66-4.29-8.28.06-31.36.07-62.72-.04-94.07-.01-3.35.9-6.03,3.21-8.33,1.3-.58,2.61-1.16,3.91-1.74.57-.06,1.15-.12,1.72-.19.29.05.4-.07.35-.35-.04-2.37.31-4.62,1.91-6.51.17-.18.35-.36.52-.54,1.87-1.9,4.36-2.5,6.82-2.89,1.32-.21,1.46-.69,1.45-1.77-.03-2.61-.03-5.21,1.56-7.5,1.72-2.47,3.94-4.08,7.05-4.03,9.21.15,18.35,1.08,27.5,2.14,10.5,1.21,20.68,3.77,30.89,6.29,1.36.7,2.83,1.1,4.31,1.47,6.14,2.53,12.44,4.67,18.29,7.86.32.19.64.39.96.58.83.57,1.8,1.01,2.48,1.72,1.92,2.01,3.51,1.79,5.8.23,5.96-4.08,12.48-7.13,19.41-9.28.68-.21,1.32-.55,1.98-.83,1.37-.26,2.7-.63,3.93-1.3,6.5-1.8,13-3.55,19.61-4.93.29,0,.58,0,.87,0,.62.34.9.95,1.22,1.53-.1.06-.15.15-.15.27-.26,1.54-1.45,1.75-2.71,2.02-11.62,2.43-22.97,5.74-33.78,10.7-3.44,1.58-6.72,3.44-9.78,5.69-1,.73-1.48,1.56-1.48,2.91.04,34.52.03,69.04.04,103.56,0,.68-.38,1.64.32,2,.68.35,1.27-.51,1.86-.86,18.25-10.97,38.25-17,59.01-20.83,8-1.48,16.06-2.6,24.18-3.19,3.72-.27,5.48-2.31,5.48-6.21.01-24.93.01-49.86.02-74.78,0-5.31.04-10.61.05-15.92,0-.87-.01-1.75-.17-2.6-.25-1.38-.66-2.99-1.95-3.45-.84-.3-1.55,1.24-2.32,1.95-.05.05-.1.11-.16.15-4.67,2.72-5.77,6.55-3.63,11.44.25.58.27,1.28.36,1.92.38,2.52-1.26,3.95-3.66,3.13-2.27-.78-4.39-1.92-6.41-3.22-1.31-.84-2.39-.91-3.76-.05-1.9,1.19-3.95,2.15-5.96,3.16-1.16.58-2.38.79-3.48-.13-1.03-.86-1-2-.73-3.2.5-2.27.87-4.57,1.46-6.81.35-1.33-.04-2.19-.97-3.05-1.87-1.72-3.69-3.5-5.54-5.23-.69-.65-1.49-1.3-1.1-2.34.4-1.06,1.01-2.05,2.36-2.18,1.95-.19,3.89-.59,5.83-.56,2.39.03,3.79-1.37,4.8-3.11,1.2-2.06,2.02-4.33,3-6.51.35-.43.7-.86,1.05-1.29,1.97-.45,3.11.38,3.84,2.23.82,2.08,1.92,4.05,2.76,6.12.62,1.53,1.76,2.28,3.26,2.45,2.14.25,4.31.51,6.46.47,4.33-.07,8.07,4.73,7.94,8.01-.07,1.73-.57,3.92.53,5.02.93.93,3.07.65,4.68.91.87.51,1.74,1.02,2.61,1.52,2.1,2.12,3.01,4.71,3.09,7.65-.15,1.19.67.81,1.27.79.58.01,1.17.03,1.75.04,1.16.74,2.32,1.48,3.48,2.21Zm-122.24,106.99c.2.25.6.36.69.13.13-.33-.31-.25-.52-.32-.66-.96-1.77-1.21-2.72-1.69-23.4-11.84-48.4-17.79-74.38-20.03-7.28-.63-10.47-3.84-10.47-11.1,0-26.81,0-53.63,0-80.44,0-.51-.04-1.02,0-1.53.08-.94-.29-1.22-1.24-1.25-3.61-.11-5.87,2.12-5.86,5.98.02,31.17.04,62.35.06,93.52,0,4.07,1.7,5.84,5.78,5.98,5.74.2,11.47.32,17.21.55,18.1.72,36.03,2.97,53.8,6.44,5.9,1.15,11.77,2.5,17.65,3.76Zm7.13.18c0-1.23,0-1.94,0-2.65,0-34.37-.02-68.73.04-103.1,0-1.94-.7-3.09-2.19-4.09-5.53-3.7-11.53-6.41-17.74-8.73-20.79-7.78-42.46-10.62-64.49-11.38-4.44-.15-6.7,2.03-6.69,6.44.02,30.52.06,61.03.09,91.55,0,3.82,1.93,5.88,5.77,6.29,4.19.44,8.38.81,12.56,1.35,16.62,2.12,32.83,5.93,48.45,12.08,8.26,3.25,16.38,6.82,24.19,12.23Zm114.23-52.86h.02c0-15.84-.01-31.69.01-47.53,0-2.01-.61-3.56-2.23-4.89-1.02-.84-2.09-1.24-3.11-.81-.87.36-.38,1.57-.38,2.39-.04,28.93-.04,57.85-.06,86.78,0,5.94-3.54,9.5-9.48,9.51-13.97.04-27.88,1.06-41.76,2.54-18.17,1.94-36.02,5.5-53.64,10.3-1.46.4-2.82.41-4.27,0-4.52-1.25-9.03-2.54-13.59-3.59-26.73-6.16-53.83-9.05-81.24-9.29-6.29-.06-9.58-3.43-9.58-9.78-.02-27.54-.03-55.09-.04-82.63,0-1.74-.04-3.49.02-5.23.04-1.02-.36-1.21-1.29-1.07-2.98.45-4.5,2.66-4.5,6.66.03,31.32.05,62.65.08,93.97,0,3.54,1.92,5.54,5.42,5.69,28.75,1.17,57.49,2.35,86.24,3.5,1.15.05,1.89.35,2.37,1.45,3.01,6.9,8.66,10.22,15.82,10.97,7.68.81,14.95-1.01,19.12-7.79,2.5-4.07,5.16-5.17,9.29-4.74.14.01.29,0,.44,0,27-1.12,54.01-2.25,81.01-3.36,3.5-.14,5.32-1.98,5.32-5.47,0-15.84,0-31.69,0-47.53Zm-103.48,52.45c.9.33,1.57-.01,2.26-.18,18.73-4.59,37.71-7.5,56.93-8.98,9.78-.75,19.57-1.29,29.38-1.32,3.67-.01,5.67-1.96,5.67-5.43.03-31.39.04-62.78.05-94.17,0-3.88-1.97-5.83-5.66-5.9-1.15-.02-1.59.31-1.55,1.44.06,1.81.08,3.63.07,5.45-.03,25.87-.08,51.73-.11,77.6,0,5.49-3.37,9.25-8.79,9.72-6.3.54-12.58,1.24-18.82,2.24-18.8,3.02-37.04,7.93-54.14,16.51-1.77.89-3.7,1.57-5.29,3.01Zm77.72-129.57c-2.7-.31-4.84-.63-6.99-.77-2.13-.14-3.45-1.1-4.18-3.14-.7-1.97-1.64-3.85-2.65-6.18-1.12,2.5-2.15,4.64-3.03,6.83-.68,1.68-1.77,2.48-3.61,2.57-2.25.1-4.49.45-7.1.74,1.8,1.66,3.19,3.04,4.7,4.28,1.92,1.58,2.39,3.44,1.78,5.82-.49,1.91-1.14,3.83-1.03,6.14,1.96-1.11,3.8-1.99,5.46-3.12,1.87-1.28,3.51-1.24,5.37,0,1.73,1.15,3.63,2.06,5.92,3.34-.58-2.59-.93-4.72-1.55-6.79-.61-2.03-.04-3.5,1.51-4.81,1.71-1.45,3.32-3,5.41-4.9Zm-78.09,129.88s-.08-.1-.12-.1c-.04,0-.09.05-.14.08.04.04.07.1.11.11.04,0,.09-.05.15-.08Z"/>
  <path class="cls-1" d="m149.81,154.64c.4-7.46,3.56-15.54,11.36-21.24,4.11-3,8.7-4.28,13.78-2.81,1.35.39,2.56,1.02,3.59,1.98,1.5,1.39,2.2,3,1.52,5.08-.68,2.06-1.89,3.41-4.15,3.57-4.14.3-7.98,1.46-11.45,3.78-2.54,1.7-4.54,3.87-5.47,6.83-1.29,4.06.65,7.24,4.83,8.1,3.02.62,5.92.01,8.81-.75,4.8-1.27,9.28-3.32,13.69-5.54.97-.49,1.94-1,2.96-1.38,1.94-.72,3.34,0,3.72,2.05.7,3.69-.04,7.13-3.22,9.33-7.33,5.08-15.42,8.51-24.37,9.2-10.13.78-15.79-5.31-15.6-18.19Zm3.01,1.86c.05.94.08,1.89.16,2.83.6,7.3,4.31,10.64,11.68,10.5.8-.02,1.6-.07,2.38-.18,7.17-.97,13.59-3.94,19.84-7.4,2.42-1.34,3.1-3.49,3.43-5.93.15-1.12-.15-1.46-1.29-.84-3.19,1.72-6.46,3.31-9.84,4.63-4.83,1.88-9.73,3.39-15.03,2.85-6.9-.71-10.55-7.07-7.64-13.36,1.28-2.77,3.24-4.97,5.68-6.76,3.73-2.74,7.99-4.02,12.52-4.57,1.15-.14,2.44-.17,2.65-1.71.19-1.44-.93-2.03-1.94-2.57-3.24-1.74-6.52-1.3-9.62.26-9.11,4.6-12.48,12.62-12.98,22.28Z"/>
  <path class="cls-1" d="m167.82,121.2c-.3,1.96-1.19,4.12-2.9,5.77-1.21,1.16-2.71.34-3.85-.29-1.89-1.05-2.76-.66-3.63,1.32-1.12,2.56-2.25,2.79-4.9,1.7-5.35-2.2-5.69-3.09-3.11-8.2,1.52-3.02,2.23-3.34,5.7-1.6,1.77.89,2.46.73,3.22-1.14,1.15-2.81,1.99-3.05,4.91-1.97,1.15.42,2.24,1.02,3.3,1.64.86.51,1.3,1.34,1.26,2.78Zm-5.79-1.93c-1.34.56-1.88,1.9-1.92,2.92-.05,1.53,1.74,1.74,2.75,1.78,1.34.05,1.74-1.5,1.82-2.56.12-1.7-1.75-1.34-2.65-2.14Zm-7.91,7.93c1-.63,1.51-1.72,1.62-2.75.19-1.69-1.49-1.89-2.49-2.01-1.63-.2-1.86,1.55-1.94,2.56-.13,1.58,1.7,1.35,2.81,2.2Z"/>
  <path class="cls-1" d="m202.87,113.3c2.03,0,3.59,1.59,3.55,3.61-.04,1.97-1.7,3.59-3.66,3.57-2.01-.02-3.6-1.64-3.56-3.62.05-1.97,1.68-3.55,3.67-3.55Z"/>
  <path class="cls-1" d="m173.81,104.9c-.06,2.02-1.63,3.48-3.68,3.43-1.98-.04-3.55-1.67-3.5-3.64.05-1.97,1.71-3.66,3.58-3.62,2.01.03,3.66,1.79,3.6,3.83Z"/>
  <path class="cls-2" d="m17.26,104.89c.05.29-.07.4-.35.35.12-.12.23-.23.35-.35Z"/>
  <path class="cls-2" d="m173.66,87.41c0-.12.05-.21.15-.27.02.13-.03.22-.15.27Z"/>
  <path class="cls-2" d="m239.32,110.47c-.25.02-.42-.04-.33-.35l.33.35Z"/>
  <path class="cls-2" d="m104.61,225.51c.13.2.27.4.4.6-.13-.2-.27-.4-.4-.6Z"/>
  <path class="cls-2" d="m132.85,215c-.06.03-.11.09-.15.08-.04,0-.08-.07-.11-.11.05-.03.1-.08.14-.08.04,0,.08.07.12.1Z"/>
  <path class="cls-1" d="m68.87,173.79c-2.47.02-5.49-.28-8.44-1.16-8.97-2.67-13.17-10.39-10.55-19.38.87-2.98,2.31-5.64,4.4-7.93.85-.93,1.07-1.36-.27-2.16-3.81-2.29-4.65-5.21-2.95-9.28,2.96-7.12,10.23-11.52,16.92-10.25,1.9.36,3.63,1.09,4.92,2.59,1,1.17,1.47,2.47.71,4.01-.78,1.57-2,2.26-3.71,2.03-2.02-.28-4.04-.5-6.08-.32-2.18.19-4.63,1.81-4.15,2.78.91,1.89,2.83,1.44,4.43,1.3,2.79-.25,5.25-1.63,7.82-2.59,2.18-.81,4.37-1.6,6.69-1.86,2.45-.27,3.58.8,3.4,3.25-.09,1.15-.39,2.28-.67,3.41-.53,2.18-1.76,3.48-4.14,3.83-3.6.53-7.05,1.71-10.34,3.29-2.46,1.18-4.62,2.75-6.17,5.03-2.88,4.23-1.67,8.9,2.98,11.07,3.58,1.68,7.44,1.88,11.3,1.72,2.54-.11,5.05-.45,7.55-.96,2.73-.55,4.17.97,3.66,3.73-.58,3.08-2.12,5.29-5.31,6.26-3.73,1.13-7.51,1.62-11.99,1.6Zm14.35-8.59c-.73-.32-1.34.01-1.97.12-4.76.79-9.53,1.03-14.3.18-5.95-1.05-9.89-4.42-10.56-9.21-.66-4.75,1.6-8.28,5.15-11.09,4.14-3.28,9.02-4.92,14.13-5.85,1.85-.33,2.84-1.17,3.19-2.94.11-.55.66-1.16.24-1.63-.5-.56-1.23-.1-1.83.06-3.18.79-6.13,2.24-9.17,3.4-2.58.99-5.22,1.3-7.88.41-1.87-.63-3.45-1.73-3.71-3.86-.26-2.17,1.13-3.52,2.82-4.52,2.77-1.64,5.81-1.59,8.88-1.25.87.1,2.21.87,2.53-.2.4-1.35-1.25-1.45-2.12-1.98-.18-.11-.42-.12-.63-.17-4.46-1.19-9.34.9-12.6,5.4-3.44,4.74-2.7,7.48,2.63,9.76.2.09.4.19.6.25,1.84.55,1.71,1.42.47,2.57-2.14,1.98-4.09,4.12-5.38,6.79-3.82,7.89-.9,15.62,7.05,18.15,6.42,2.04,12.9,1.58,19.3-.26,2.04-.58,3.04-2.04,3.14-4.14Z"/>
  <path class="cls-1" d="m105.34,143.05c.05,6.68.38,13.36-.34,20.03-.48,4.39-2.23,8.08-5.65,10.92-1.04.86-2.18,1.5-3.59.86-1.48-.68-1.15-2.01-1.09-3.22.52-10.76-.19-21.48-.8-32.21-.18-3.19-.51-6.37-.6-9.56-.11-3.95,4.64-9.17,8.54-9.5,1.77-.15,2.14,1.06,2.34,2.48.86,6.35.87,12.75,1.18,19.13.02.36,0,.73,0,1.09Zm-7.58,27.98c1.03-.23,1.34-1.02,1.79-1.63,2.21-2.93,2.64-6.4,2.77-9.91.38-10.17,0-20.34-.51-30.5-.09-1.75-.28-3.5-.44-5.44-3.12,2.07-5.54,3.95-5.09,8.11,1.02,9.53,1.43,19.12,1.49,28.71.02,3.52,0,7.04,0,10.65Z"/>
  <path class="cls-1" d="m71.08,115.38c.07,2.16-2.95,5.77-4.86,5.8-1.82.03-5.65-3.33-5.77-5.06-.13-1.91,3.08-5.88,4.8-5.93,1.98-.06,5.77,3.32,5.83,5.2Zm-5.48-2.1c-.86.64-1.9,1.4-1.88,2.42.02,1.13,1.31,1.92,2.29,1.95,1,.03,1.87-1.09,1.89-2.09.02-1.22-1.29-1.6-2.29-2.28Z"/>
</svg>